<svg width="48" height="48" viewBox="0 0 48 48" fill="none" xmlns="http://www.w3.org/2000/svg">
<path d="M24 4C35.0457 4 44 12.9543 44 24C44 35.0457 35.0457 44 24 44C12.9543 44 4 35.0457 4 24C4 12.9543 12.9543 4 24 4ZM8.72266 31.4639C11.4868 37.1109 17.2889 41 24 41C30.7109 41 36.5122 37.1107 39.2764 31.4639L24 28.5L8.72266 31.4639ZM24 7C14.6112 7 7 14.6112 7 24C7 25.3405 7.15591 26.6445 7.44922 27.8955L24 21L40.5498 27.8955C40.8431 26.6444 41 25.3405 41 24C41 14.6112 33.3888 7 24 7Z" fill="#1262F5"/>
</svg>
