<svg width="48" height="48" viewBox="0 0 48 48" fill="none" xmlns="http://www.w3.org/2000/svg">
<path d="M39.2197 11.6719C40.4997 11.6719 41.6906 11.952 42.6406 12.502C43.5903 13.0519 44.3201 13.8218 44.8301 14.8115C45.3401 15.8015 45.6101 16.9319 45.6201 18.2119H42.5098C42.4198 17.1719 42.1198 16.3816 41.5898 15.8516C41.0599 15.3218 40.2501 15.0518 39.1504 15.0518C38.0504 15.0518 37.1904 15.3323 36.6504 15.9023C36.1105 16.4623 35.8398 17.232 35.8398 18.2119C35.8398 18.7119 35.9404 19.142 36.1504 19.502C36.3604 19.8619 36.6102 20.1519 36.9102 20.3818C37.2101 20.6118 37.5299 20.8022 37.8799 20.9521C38.2297 21.1021 38.5499 21.2318 38.8398 21.3418L40.4805 21.9316C40.9804 22.1316 41.5402 22.3721 42.1602 22.6621C42.7801 22.9521 43.3898 23.3423 43.9697 23.8223C44.5497 24.3022 45.0299 24.9219 45.4199 25.6719C45.7999 26.4319 46 27.3822 46 28.5322C46 29.9021 45.7397 31.1017 45.2197 32.1416C44.6997 33.1816 43.9301 33.9915 42.9102 34.5615C41.8902 35.1315 40.6204 35.4218 39.1006 35.4219C36.8807 35.4219 35.2005 34.8119 34.0605 33.582C32.9205 32.352 32.3002 30.6918 32.2002 28.5918H35.46C35.49 29.3918 35.6602 30.042 35.9502 30.542C36.2402 31.0419 36.6507 31.4121 37.1807 31.6621C37.7106 31.912 38.3508 32.0322 39.1006 32.0322C40.2802 32.0322 41.1899 31.7119 41.8398 31.0723C42.4898 30.4323 42.8105 29.562 42.8105 28.4521C42.8105 27.8223 42.6703 27.3221 42.4004 26.9521C42.1304 26.5821 41.7598 26.2717 41.2998 26.0117C40.8399 25.7518 40.32 25.522 39.7402 25.332L37.6602 24.5518C36.1602 24.0118 34.95 23.2515 34.04 22.2715C33.1302 21.2915 32.6807 19.9818 32.6807 18.332C32.6807 16.902 32.9603 15.6814 33.5303 14.6914C34.0902 13.6917 34.8601 12.9416 35.8398 12.4316C36.8097 11.9217 37.9399 11.6719 39.2197 11.6719ZM17.79 35.002H14.5303L12.9268 29.2119H5.77832L4.16016 35.002H1L7.74023 11.9922H11.0996L17.79 35.002ZM30.9805 15.3721H22.6504V21.8115H30.1406V25.1914H22.6504V34.9814H19.4404V11.9922H30.9805V15.3721ZM6.73438 25.792H11.9795L9.42969 16.582H9.30957L6.73438 25.792Z" fill="#FF8A00"/>
</svg>
