<svg width="48" height="48" viewBox="0 0 48 48" fill="none" xmlns="http://www.w3.org/2000/svg">
<path d="M30.4453 43.5977L27.5547 44.4014L24.457 33.25H27.5703L30.4453 43.5977ZM24.4561 33.249L17.7637 33.25L11.4219 43.6699L7.50391 41.4619L14.0029 28.9619C14.3604 28.2745 15.0471 27.819 15.8193 27.7568L22.7764 27.2002L24.4561 33.249ZM30.208 18.332C31.0913 16.5918 33.1961 15.8657 34.9648 16.6904C36.7333 17.5152 37.5288 19.5936 36.7637 21.3887L32.5195 31.3447L32.3623 31.7744C32.0373 32.6604 31.1938 33.249 30.25 33.249L27.5703 33.25L25.8223 26.9561H25.8311L30.208 18.332ZM14 6C18.4183 6 22 9.58172 22 14C22 18.4183 18.4183 22 14 22C9.58172 22 6 18.4183 6 14C6 9.58172 9.58172 6 14 6ZM46.0605 14.0605L40.0537 20.0664C40.0705 18.8784 39.7648 17.7132 39.1846 16.6934L43.9395 11.9395L46.0605 14.0605ZM36.5 7C38.7091 7 40.5 8.79086 40.5 11C40.5 13.2091 38.7091 15 36.5 15C34.2909 15 32.5 13.2091 32.5 11C32.5 8.79086 34.2909 7 36.5 7Z" fill="#F62E24"/>
</svg>
