<svg width="48" height="48" viewBox="0 0 48 48" fill="none" xmlns="http://www.w3.org/2000/svg">
<path d="M39.6104 11.6719C40.8204 11.6719 41.9408 11.952 42.8408 12.502C43.7406 13.0519 44.4202 13.8218 44.9102 14.8115C45.3902 15.8015 45.6402 16.9319 45.6602 18.2119H42.7109C42.6309 17.1719 42.3408 16.3816 41.8408 15.8516C41.3408 15.3216 40.58 15.0518 39.54 15.0518C38.5002 15.0518 37.6906 15.3324 37.1807 15.9023C36.6708 16.4623 36.4209 17.232 36.4209 18.2119C36.4209 18.7119 36.5209 19.142 36.7109 19.502C36.9009 19.8618 37.141 20.1519 37.4209 20.3818C37.7008 20.6117 38.0109 20.8022 38.3408 20.9521C38.6705 21.102 38.9702 21.2319 39.25 21.3418L40.8008 21.9316C41.2707 22.1316 41.7909 22.3721 42.3809 22.6621C42.9707 22.9521 43.5402 23.3424 44.0801 23.8223C44.6301 24.3022 45.0802 24.9219 45.4502 25.6719C45.8102 26.4319 45.9902 27.3822 45.9902 28.5322C45.9902 29.9021 45.7399 31.1017 45.25 32.1416C44.76 33.1816 44.0303 33.9915 43.0703 34.5615C42.1103 35.1315 40.9205 35.4219 39.4805 35.4219C37.3905 35.4219 35.8005 34.812 34.7305 33.582C33.6605 32.352 33.0705 30.6918 32.9805 28.5918H36.0508C36.0808 29.3918 36.2307 30.042 36.5107 30.542C36.7807 31.0419 37.171 31.4121 37.6709 31.6621C38.1708 31.912 38.7707 32.0322 39.4805 32.0322C40.5903 32.0322 41.4503 31.7121 42.0703 31.0723C42.6803 30.4323 42.9902 29.562 42.9902 28.4521C42.9902 27.8223 42.8605 27.3221 42.6006 26.9521C42.3406 26.5821 42.0005 26.2717 41.5605 26.0117C41.1306 25.7518 40.6307 25.522 40.0908 25.332L38.1309 24.5518C36.7109 24.0118 35.5807 23.2515 34.7207 22.2715C33.8708 21.2915 33.4405 19.9819 33.4404 18.332C33.4404 16.902 33.7102 15.6814 34.2402 14.6914C34.7702 13.6915 35.501 12.9416 36.4209 12.4316C37.3408 11.9218 38.4006 11.6719 39.6104 11.6719ZM16.8398 35.002H13.7695L12.2578 29.2119H5.49707L3.96973 35.002H1L7.36035 11.9922H10.5303L16.8398 35.002ZM24.7607 11.9922C26.1505 11.9922 27.2599 12.2724 28.0898 12.8223C28.9298 13.3723 29.5407 14.132 29.9307 15.082C30.3206 16.0419 30.5107 17.1119 30.5107 18.3018C30.5107 19.3418 30.34 20.1918 30 20.8418C29.66 21.4917 29.2404 21.9918 28.7305 22.3418C28.2206 22.6917 27.7206 22.8919 27.2207 22.9619V23.0918C27.6206 23.1119 28.0509 23.242 28.5107 23.4619C28.9706 23.6919 29.4009 24.0218 29.8008 24.4717C30.2007 24.9116 30.5301 25.4818 30.79 26.1816C31.05 26.8716 31.1807 27.7023 31.1807 28.6523C31.1806 29.8422 30.9903 30.9222 30.6104 31.8721C30.2304 32.832 29.5906 33.5824 28.6807 34.1523C27.7707 34.7123 26.5305 35.0019 24.9707 35.002H18.3203V11.9922H24.7607ZM21.3398 31.6318H24.9404L24.9502 31.6221C25.87 31.6221 26.56 31.5019 27.04 31.252C27.52 31.002 27.8302 30.642 27.9902 30.1621C28.1502 29.6822 28.2304 29.1021 28.2305 28.4023C28.2305 27.7026 28.1205 27.1122 27.8906 26.6123C27.6606 26.1123 27.3204 25.7214 26.8604 25.4414C26.4004 25.1615 25.8003 25.0215 25.0605 25.0215H21.3398V31.6318ZM6.39941 25.792H11.3652L8.95996 16.582H8.83008L6.39941 25.792ZM21.3398 21.6016H24.6699L24.6807 21.5918C25.6305 21.5917 26.3501 21.3315 26.8301 20.8115C27.31 20.2915 27.5508 19.4819 27.5508 18.3721C27.5508 17.7621 27.4798 17.242 27.3398 16.792C27.1999 16.3521 26.9304 16.0019 26.5205 15.752C26.1106 15.502 25.5105 15.3819 24.7207 15.3818H21.3398V21.6016Z" fill="#FF8A00"/>
</svg>
