<svg width="48" height="48" viewBox="0 0 48 48" fill="none" xmlns="http://www.w3.org/2000/svg">
<path d="M24 6C33.9284 6 42 14.0716 42 24C42 33.9284 33.9284 42 24 42C19.1578 42 14.6132 40.0982 11.2021 36.6436C7.85705 33.2547 6 28.7569 6 24C6 19.245 7.84574 14.7456 11.2041 11.3545C14.6154 7.90043 19.169 6 24 6ZM41.0674 7.14648C45.3521 11.4847 47.9999 17.4385 48 24C48 30.5607 45.3524 36.5259 41.0654 40.8555L38.9346 38.7451C42.6875 34.9548 45 29.7391 45 24C44.9999 18.2619 42.6875 13.0556 38.9326 9.25391L41.0674 7.14648ZM9.06543 9.25586C5.31271 13.0462 3.00005 18.2611 3 24C3.00005 29.7381 5.3124 34.9444 9.06738 38.7461L6.93262 40.8545C2.64768 36.5163 4.92554e-05 30.5617 0 24C5.25881e-05 17.4393 2.6477 11.4741 6.93457 7.14453L9.06543 9.25586ZM24 9C19.9717 9 16.1855 10.5789 13.3369 13.4639L13.3359 13.4658C10.5344 16.2947 9 20.035 9 24C9 26.7813 9.76124 29.4531 11.1807 31.7783L14.4355 13.9863L14.4473 13.9248H16.6426L16.6543 13.9863L20.3047 33.9961L20.3203 34.085H18.1963L17.3535 29.1953H13.665L12.8203 33.9854C12.9878 34.1725 13.1603 34.3562 13.3379 34.5361C16.1868 37.4214 19.9622 39 24 39C32.2716 39 39 32.2716 39 24C39 15.7284 32.2716 9 24 9ZM32.9932 13.6377C33.6413 13.6939 34.2054 13.9463 34.6816 14.3955C35.2232 14.9065 35.6284 15.6091 35.9111 16.5078C36.1938 17.4065 36.3349 18.4341 36.335 19.5898V19.665H34.2988L34.2949 19.5938C34.2551 18.7476 34.1257 18.1216 33.875 17.6875C33.6299 17.2642 33.2355 17.0449 32.6797 17.0449C32.4 17.045 32.1652 17.1002 31.9697 17.208C31.7746 17.3157 31.6134 17.4784 31.4844 17.6982C31.2236 18.1428 31.085 18.7484 31.085 19.5098C31.085 19.8829 31.134 20.1947 31.2305 20.4648C31.3275 20.7365 31.4536 20.95 31.5986 21.1338C31.7425 21.3159 31.9063 21.4614 32.0811 21.5879C32.1712 21.648 32.2576 21.7058 32.3389 21.7607C32.4201 21.8157 32.4977 21.8682 32.5723 21.918L33.4385 22.4258L33.4404 22.4268L33.8779 22.7148C34.0335 22.8215 34.1995 22.939 34.375 23.0693C34.7309 23.3337 35.0761 23.6697 35.4004 24.1055C35.7374 24.5348 35.9996 25.0933 36.2109 25.7676C36.424 26.4473 36.5254 27.2857 36.5254 28.29L36.5186 28.7461C36.4875 29.7924 36.3471 30.7182 36.0908 31.5225C35.7979 32.4515 35.3728 33.1655 34.79 33.6768L34.7891 33.6758C34.2857 34.1249 33.6728 34.3778 32.9541 34.4336L32.6396 34.4453C32.0134 34.4452 31.4591 34.3046 30.9824 34.0205C30.506 33.7364 30.1101 33.3103 29.7949 32.7461C29.1671 31.6219 28.8246 30.1184 28.7744 28.2217L28.7725 28.1445H30.8633L30.8652 28.2178C30.8851 28.8732 30.9646 29.4063 31.1016 29.8271L31.1553 29.9756C31.2874 30.3117 31.4631 30.5669 31.6855 30.7402C31.94 30.9381 32.2536 31.0351 32.6299 31.0352C33.2137 31.0352 33.6602 30.7883 33.9766 30.29C34.2961 29.7865 34.4551 29.1017 34.4551 28.2197C34.455 27.7371 34.3864 27.3588 34.2627 27.082L34.1533 26.8789C34.0358 26.6822 33.8934 26.5084 33.7197 26.3564C33.543 26.2018 33.3492 26.0578 33.1426 25.9248L32.9316 25.7949L31.8418 25.1445C30.9904 24.6477 30.3109 23.9579 29.8047 23.0771C29.3597 22.3027 29.1117 21.3142 29.0566 20.1162L29.0449 19.5898C29.045 18.3045 29.206 17.2152 29.5195 16.335C29.8327 15.4562 30.2696 14.7829 30.8223 14.3223L31.0332 14.1602C31.533 13.8065 32.0904 13.6251 32.71 13.625L32.9932 13.6377ZM24.5703 13.9248C25.4063 13.9249 26.0864 14.1812 26.5928 14.6875C27.0941 15.1889 27.4599 15.8715 27.6924 16.7207C27.9245 17.5685 28.0351 18.5252 28.0352 19.5801L28.0303 19.915C28.0083 20.6769 27.9087 21.3063 27.7305 21.8145C27.5281 22.3911 27.2728 22.8236 26.9717 23.1143C26.7227 23.3546 26.469 23.5182 26.2119 23.6025C26.4052 23.6477 26.6121 23.7431 26.8213 23.8877C27.1028 24.0754 27.3604 24.3649 27.5938 24.7402L27.6836 24.8906C27.887 25.2526 28.0515 25.6923 28.1924 26.2207C28.3443 26.8184 28.4248 27.556 28.4248 28.4102L28.4189 28.7979C28.3946 29.6908 28.285 30.5095 28.082 31.2598C27.8493 32.1195 27.4733 32.8028 26.9209 33.3145C26.3639 33.83 25.6236 34.085 24.6797 34.085H20.7344V13.9248H24.5703ZM22.835 30.665H24.7656V30.6719C25.2297 30.6624 25.5741 30.5665 25.793 30.3916L25.7939 30.3906C26.0363 30.2042 26.199 29.9221 26.2764 29.5459C26.3553 29.1513 26.4043 28.6757 26.4043 28.1201C26.4043 27.5657 26.3456 27.123 26.2285 26.7422C26.112 26.3639 25.9283 26.0767 25.6904 25.8672C25.457 25.6618 25.1456 25.5557 24.7598 25.5557H22.835V30.665ZM14.2637 25.7949H16.7676L15.5283 18.6035L14.2637 25.7949ZM22.8252 22.1348H24.5303L24.7109 22.126C25.1166 22.0845 25.4227 21.8977 25.6367 21.5605C25.8851 21.1689 26.0146 20.5458 26.0146 19.6602C26.0146 19.2959 25.9924 18.966 25.9521 18.6787L25.9062 18.4053C25.8387 18.0578 25.6955 17.7938 25.4912 17.6172C25.3139 17.4641 25.0612 17.3629 24.7217 17.3398L24.5703 17.335H22.8252V22.1348Z" fill="#FF8A00"/>
</svg>
