<svg width="48" height="48" viewBox="0 0 48 48" fill="none" xmlns="http://www.w3.org/2000/svg">
<path d="M20.3398 24.8721C22.1498 24.8721 23.5298 25.7021 24.5098 27.3721C25.4897 29.0421 25.9795 31.4421 25.9795 34.582C25.9795 37.742 25.4898 40.1523 24.5098 41.8223C23.5298 43.4921 22.1397 44.3223 20.3398 44.3223C18.54 44.3222 17.1399 43.4921 16.1699 41.8223C15.1999 40.1523 14.71 37.742 14.71 34.582C14.71 31.4221 15.2 29.0421 16.1699 27.3721C17.1399 25.7021 18.5299 24.8721 20.3398 24.8721ZM5.20996 33.1621H10.8799V25.1426H13.0898V44.0518H10.8799V35.9424H5.20996V44.0518H3V25.1426H5.20996V33.1621ZM29.8203 41.2422H35.2402V44.0518H27.6104V25.1426H29.8203V41.2422ZM40.4199 25.1426C42.3598 25.1426 43.8201 25.9726 44.79 27.6426C45.7598 29.3125 46.25 31.6224 46.25 34.582C46.25 37.542 45.7595 39.862 44.7695 41.542C43.7796 43.2218 42.2698 44.0517 40.25 44.0518H36.0098V25.1426H40.4199ZM20.3701 27.6816C19.2201 27.6816 18.3503 28.2425 17.7803 29.3525C17.2104 30.4626 16.9199 32.2123 16.9199 34.582C16.9199 36.9519 17.2103 38.7218 17.7803 39.8418C18.3503 40.9517 19.2102 41.5117 20.3701 41.5117C21.53 41.5117 22.3805 40.9517 22.9404 39.8418C23.5003 38.7218 23.7803 36.9717 23.7803 34.582C23.7803 32.2125 23.5002 30.4626 22.9404 29.3525C22.3805 28.2426 21.52 27.6817 20.3701 27.6816ZM38.2197 41.2617H40.1602V41.2725C41.1199 41.2724 41.8901 41.0223 42.46 40.5225C43.0299 40.0225 43.4394 39.2819 43.6895 38.292C43.9394 37.302 44.0596 36.072 44.0596 34.582C44.0596 33.0923 43.9401 31.8422 43.7002 30.8623C43.4602 29.8823 43.0595 29.1423 42.5195 28.6523C41.9695 28.1624 41.2298 27.9121 40.2998 27.9121H38.2197V41.2617ZM16.3203 15.9424C16.3203 16.8722 16.4101 17.6726 16.5801 18.3525C16.7601 19.0322 17.0502 19.552 17.46 19.9219C17.87 20.2918 18.4505 20.4727 19.1904 20.4727C19.9302 20.4726 20.4902 20.2917 20.9102 19.9219C21.3299 19.552 21.6298 19.0321 21.7998 18.3525C21.9798 17.6726 22.0595 16.8722 22.0596 15.9424V4.0127H24.3398V16.1318C24.3398 17.5617 24.1503 18.8126 23.7803 19.8926C23.4003 20.9723 22.8397 21.8027 22.0898 22.3926C21.3399 22.9824 20.3797 23.2725 19.21 23.2725C18.0402 23.2724 17.1 22.9824 16.3301 22.3926C15.5702 21.8027 14.9904 20.9723 14.6104 19.8926C14.2304 18.8126 14.0401 17.5617 14.04 16.1318V4.0127H16.3203V15.9424ZM41 3.74219C42.8599 3.74219 44.2898 4.5723 45.2998 6.24219C46.3097 7.91217 46.8105 10.3123 46.8105 13.4521C46.8105 16.612 46.3098 19.0224 45.2998 20.6924C44.2898 22.3621 42.8598 23.1924 41 23.1924C39.1402 23.1923 37.7002 22.3621 36.7002 20.6924C35.7002 19.0224 35.2002 16.612 35.2002 13.4521C35.2002 10.2923 35.7003 7.91217 36.7002 6.24219C37.7002 4.57225 39.1401 3.74225 41 3.74219ZM13.6504 22.9219H11.3408L10.2031 18.1621H5.12109L3.9707 22.9219H1.73047L6.52051 4.0127H8.90039L13.6504 22.9219ZM35.2598 6.79199H31.3301V22.9219H29.0498V6.79199H25.1201V4.0127H35.2598V6.79199ZM41.0205 6.55176C39.8305 6.55176 38.9406 7.11266 38.3506 8.22266C37.7607 9.34266 37.4697 11.0824 37.4697 13.4521C37.4697 15.822 37.7606 17.5919 38.3506 18.7119C38.9406 19.8218 39.8306 20.3818 41.0205 20.3818C42.2103 20.3817 43.09 19.8217 43.6699 18.7119C44.2499 17.6019 44.5303 15.842 44.5303 13.4521C44.5303 11.0825 44.2398 9.34267 43.6699 8.22266C43.09 7.11275 42.2104 6.55186 41.0205 6.55176ZM5.80078 15.3525H9.53125L7.7207 7.78223H7.63086L5.80078 15.3525Z" fill="#00BA13"/>
</svg>
