<svg width="48" height="48" viewBox="0 0 48 48" fill="none" xmlns="http://www.w3.org/2000/svg">
<path d="M24 4C35.0457 4 44 12.9543 44 24C44 24.1698 43.9974 24.339 43.9932 24.5078C43.8628 24.4003 43.7291 24.2967 43.5938 24.1953C46.2689 26.2019 48 29.3986 48 33C48 39.0751 43.0751 44 37 44C35.0042 44 33.1342 43.4654 31.5205 42.5361C29.1987 43.4791 26.6603 44 24 44C12.9543 44 4 35.0457 4 24C4 12.9543 12.9543 4 24 4ZM37 24.7998C32.4713 24.7998 28.7998 28.4713 28.7998 33C28.7998 37.5287 32.4713 41.2002 37 41.2002C41.5287 41.2002 45.2002 37.5287 45.2002 33C45.2002 28.4713 41.5287 24.7998 37 24.7998ZM8.72266 31.4639C11.4868 37.1109 17.2889 41 24 41C25.6622 41 27.2679 40.7592 28.7861 40.3145C27.0538 38.3705 26 35.8087 26 33C26 31.6002 26.2625 30.2618 26.7393 29.0303L24 28.5L8.72266 31.4639ZM37.7598 27.6904C38.7598 27.6904 39.5707 27.8602 40.1807 28.2002C40.7904 28.5402 41.2406 29.0005 41.5205 29.5703C41.8004 30.1402 41.9404 30.7704 41.9404 31.4502C41.9404 32.1299 41.8003 32.7398 41.5205 33.3096C41.2406 33.8794 40.8004 34.3395 40.1807 34.6895C39.5707 35.0395 38.7598 35.21 37.7598 35.21H35.8906V39H33.6807V27.6904H37.7598ZM35.8906 33.3701H37.7002C38.2702 33.3701 38.6905 33.3004 38.9805 33.1504C39.2704 33.0004 39.4703 32.7801 39.5703 32.4902C39.6703 32.2003 39.7304 31.8601 39.7305 31.4502C39.7305 31.0404 39.6802 30.6803 39.5703 30.4004C39.4603 30.1205 39.2703 29.9 38.9805 29.75C38.6905 29.6 38.2702 29.5303 37.7002 29.5303H35.8906V33.3701ZM24 7C14.6112 7 7 14.6112 7 24C7 25.3405 7.15591 26.6445 7.44922 27.8955L24 21L30.8721 23.8623C32.6232 22.6857 34.7317 22 37 22C38.393 22 39.7247 22.2611 40.9512 22.7334C40.3032 13.9362 32.9627 7 24 7Z" fill="#1262F5"/>
</svg>
