<svg width="48" height="48" viewBox="0 0 48 48" fill="none" xmlns="http://www.w3.org/2000/svg">
<path d="M30.5 7C39.8888 7 47.5 14.6112 47.5 24C47.5 33.3888 39.8888 41 30.5 41H20.5C19.1193 41 18 39.8807 18 38.5V9.5C18 8.11929 19.1193 7 20.5 7H30.5ZM15 40.5H2V37.5H15V40.5ZM21 38H30.5C38.232 38 44.5 31.732 44.5 24C44.5 16.268 38.232 10 30.5 10H21V38ZM15 33H2V30H15V33ZM40.6211 33H37.3672L35.5303 27.8213H27.4971L25.6504 33H22.5381L29.9521 12.9922H33.207L40.6211 33ZM15 25.5H2V22.5H15V25.5ZM28.4658 25.1045H34.5654L31.5938 16.7275H31.4521L28.4658 25.1045ZM15 18H2V15H15V18ZM15 10.5H2V7.5H15V10.5Z" fill="#A6A6A6"/>
</svg>
