<svg width="48" height="48" viewBox="0 0 48 48" fill="none" xmlns="http://www.w3.org/2000/svg">
<path d="M35 8C38.0373 8.00026 40.5 10.4626 40.5 13.5V21.6963C39.5443 21.3728 38.5395 21.1559 37.5 21.0586V13.5C37.5 12.1195 36.3805 11.0003 35 11H7.5C6.11929 11 5 12.1193 5 13.5V30.5C5.00026 31.8805 6.11945 33 7.5 33H23.0596C23.0211 33.4115 23 33.8284 23 34.25C23 34.8433 23.0397 35.4274 23.1152 36H7.5C4.4626 36 2.00026 33.5373 2 30.5V13.5C2 10.4624 4.46243 8 7.5 8H35ZM19.9346 23.5283C20.0345 23.4709 20.1621 23.5048 20.2197 23.6045L20.6729 24.3867C21.9035 26.515 21.1011 29.2757 18.8799 30.5557C16.6586 31.8355 13.8624 31.1483 12.6309 29.0205L12.1777 28.2383C12.12 28.1386 12.155 28.0107 12.2549 27.9531L19.9346 23.5283ZM21.7305 21.8447C22.9618 19.7013 25.759 19.0097 27.9805 20.2988C28.9186 20.8435 29.6029 21.6541 29.9883 22.5703C28.5138 23.3625 27.207 24.4258 26.1338 25.6934L21.3545 22.9199C21.2547 22.8619 21.2208 22.7332 21.2783 22.6328L21.7305 21.8447ZM45.5 24.7646C44.6118 23.8984 43.6028 23.1555 42.5 22.5645V16.5H45.5V24.7646ZM20.123 22.333H19.0029C16.528 22.333 14.5229 20.245 14.5225 17.667C14.5225 15.0887 16.5277 13 19.0029 13H20.123V22.333Z" fill="black"/>
<path d="M36.2485 23.9995C41.9094 23.9996 46.4985 28.5887 46.4985 34.2495C46.4984 39.9103 41.9093 44.4994 36.2485 44.4995C30.5877 44.4995 25.9986 39.9103 25.9985 34.2495C25.9985 28.5886 30.5876 23.9995 36.2485 23.9995ZM35.0923 35.77L31.7153 32.0435L29.7896 33.7896L35.0972 39.647L42.7124 31.2085L40.7817 29.4663L35.0923 35.77Z" fill="#00B612"/>
</svg>
