<svg width="48" height="48" viewBox="0 0 48 48" fill="none" xmlns="http://www.w3.org/2000/svg">
<path d="M35.001 8C38.0383 8.00026 40.501 10.4636 40.501 13.501V21.6973C39.5452 21.3738 38.5405 21.1569 37.501 21.0596V13.501C37.501 12.1204 36.3815 11.0012 35.001 11.001H7.50098C6.12027 11.001 5.00098 12.1203 5.00098 13.501V30.501C5.00124 31.8815 6.12043 33.001 7.50098 33.001H23.0605C23.022 33.4125 23.001 33.8294 23.001 34.251C23.001 34.8442 23.0406 35.4283 23.1162 36.001H7.50098C4.46357 36.001 2.00026 33.5383 2 30.501V13.501C2 10.4634 4.46341 8 7.50098 8H35.001ZM19.9355 23.5293C20.0355 23.4718 20.163 23.5058 20.2207 23.6055L20.6738 24.3877C21.9045 26.516 21.102 29.2767 18.8809 30.5566C16.6596 31.8364 13.8633 31.1493 12.6318 29.0215L12.1787 28.2393C12.121 28.1395 12.1559 28.0117 12.2559 27.9541L19.9355 23.5293ZM21.7314 21.8457C22.9628 19.7023 25.76 19.0107 27.9814 20.2998C28.9195 20.8444 29.6038 21.6551 29.9893 22.5713C28.5148 23.3634 27.208 24.4268 26.1348 25.6943L21.3555 22.9209C21.2557 22.8629 21.2217 22.7342 21.2793 22.6338L21.7314 21.8457ZM45.501 24.7656C44.6128 23.8993 43.6038 23.1565 42.501 22.5654V16.501H45.501V24.7656ZM20.124 22.334H19.0039C16.529 22.334 14.5239 20.2459 14.5234 17.668C14.5234 15.0896 16.5287 13.001 19.0039 13.001H20.124V22.334Z" fill="black"/>
<path d="M36.2515 24.0005C41.9119 24.001 46.5015 28.5899 46.5015 34.2505C46.5015 39.9111 41.9119 44.5 36.2515 44.5005C30.5905 44.5005 26.0005 39.9114 26.0005 34.2505C26.0005 28.5896 30.5905 24.0005 36.2515 24.0005ZM34.7524 40.7085H37.7524V37.7085H34.7524V40.7085ZM34.9517 35.5503H37.5513V28.2007H34.9517V35.5503Z" fill="#D3232A"/>
</svg>
