<svg width="48" height="48" viewBox="0 0 48 48" fill="none" xmlns="http://www.w3.org/2000/svg">
<path d="M35.001 6C38.0383 6.00026 40.501 8.46357 40.501 11.501V19.6973C39.5452 19.3738 38.5405 19.1569 37.501 19.0596V11.501C37.501 10.1204 36.3815 9.00124 35.001 9.00098H7.50098C6.12027 9.00098 5.00098 10.1203 5.00098 11.501V28.501C5.00124 29.8815 6.12043 31.001 7.50098 31.001H23.0605C23.022 31.4125 23.001 31.8294 23.001 32.251C23.001 32.8442 23.0406 33.4283 23.1162 34.001H7.50098C4.46357 34.001 2.00026 31.5383 2 28.501V11.501C2 8.46341 4.46341 6 7.50098 6H35.001ZM17.6699 12.6299L16.2773 15.6484C15.8117 16.6577 15.8645 17.8302 16.4199 18.793L17.0996 19.9717C18.0299 21.5847 18.2146 23.5226 17.6055 25.2822L16.4951 28.4912L13.6602 27.5107L14.7705 24.3008C15.0951 23.3631 14.9967 22.3303 14.501 21.4707L13.8213 20.292C12.7791 18.4853 12.6787 16.2845 13.5527 14.3906L14.9463 11.3721L17.6699 12.6299ZM23.208 12.6299L21.8154 15.6484C21.3498 16.6577 21.4026 17.8302 21.958 18.793L22.6377 19.9717C23.568 21.5847 23.7527 23.5226 23.1436 25.2822L22.0332 28.4912L19.1982 27.5107L20.3086 24.3008C20.6332 23.3631 20.5347 22.3303 20.0391 21.4707L19.3594 20.292C18.3171 18.4853 18.2168 16.2845 19.0908 14.3906L20.4844 11.3721L23.208 12.6299ZM28.7471 12.6299L27.3545 15.6484C26.8889 16.6577 26.9417 17.8302 27.4971 18.793L28.1768 19.9717C28.4246 20.4015 28.6177 20.8549 28.7588 21.3213C27.7045 22.0454 26.7601 22.9181 25.9561 23.9092C26.1363 23.0822 26.0057 22.2123 25.5781 21.4707L24.8984 20.292C23.8562 18.4853 23.7559 16.2845 24.6299 14.3906L26.0234 11.3721L28.7471 12.6299ZM45.501 22.7656C44.6128 21.8993 43.6038 21.1565 42.501 20.5654V14.501H45.501V22.7656Z" fill="black"/>
<path d="M36.2515 22.0005C41.9123 22.0006 46.5015 26.5896 46.5015 32.2505C46.5014 37.9113 41.9122 42.5004 36.2515 42.5005C30.5906 42.5005 26.0016 37.9113 26.0015 32.2505C26.0015 26.5896 30.5905 22.0005 36.2515 22.0005ZM35.0952 33.771L31.7183 30.0444L29.7925 31.7905L35.1001 37.6479L42.7153 29.2095L40.7847 27.4673L35.0952 33.771Z" fill="#00B612"/>
</svg>
