<svg width="48" height="48" viewBox="0 0 48 48" fill="none" xmlns="http://www.w3.org/2000/svg">
<path d="M35.001 8C38.0383 8.00026 40.501 10.4636 40.501 13.501V21.6973C39.5452 21.3738 38.5405 21.1569 37.501 21.0596V13.501C37.501 12.1204 36.3815 11.0012 35.001 11.001H7.50098C6.12027 11.001 5.00098 12.1203 5.00098 13.501V30.501C5.00124 31.8815 6.12043 33.001 7.50098 33.001H23.0605C23.022 33.4125 23.001 33.8294 23.001 34.251C23.001 34.8442 23.0406 35.4283 23.1162 36.001H7.50098C4.46357 36.001 2.00026 33.5383 2 30.501V13.501C2 10.4634 4.46341 8 7.50098 8H35.001ZM17.6699 14.6299L16.2773 17.6484C15.8117 18.6577 15.8645 19.8302 16.4199 20.793L17.0996 21.9717C18.0299 23.5847 18.2146 25.5226 17.6055 27.2822L16.4951 30.4912L13.6602 29.5107L14.7705 26.3008C15.0951 25.3631 14.9967 24.3303 14.501 23.4707L13.8213 22.292C12.7791 20.4853 12.6787 18.2845 13.5527 16.3906L14.9463 13.3721L17.6699 14.6299ZM23.208 14.6299L21.8154 17.6484C21.3498 18.6577 21.4026 19.8302 21.958 20.793L22.6377 21.9717C23.568 23.5847 23.7527 25.5226 23.1436 27.2822L22.0332 30.4912L19.1982 29.5107L20.3086 26.3008C20.6332 25.3631 20.5347 24.3303 20.0391 23.4707L19.3594 22.292C18.3171 20.4853 18.2168 18.2845 19.0908 16.3906L20.4844 13.3721L23.208 14.6299ZM28.7471 14.6299L27.3545 17.6484C26.8889 18.6577 26.9417 19.8302 27.4971 20.793L28.1768 21.9717C28.4246 22.4015 28.6177 22.8549 28.7588 23.3213C27.7045 24.0454 26.7601 24.9181 25.9561 25.9092C26.1363 25.0822 26.0057 24.2123 25.5781 23.4707L24.8984 22.292C23.8562 20.4853 23.7559 18.2845 24.6299 16.3906L26.0234 13.3721L28.7471 14.6299ZM45.501 24.7656C44.6128 23.8993 43.6038 23.1565 42.501 22.5654V16.501H45.501V24.7656Z" fill="black"/>
<path d="M36.2507 24.0005C41.9116 24.0005 46.5007 28.5896 46.5007 34.2505C46.5007 39.9114 41.9116 44.5005 36.2507 44.5005C30.5898 44.5005 26.0007 39.9114 26.0007 34.2505C26.0007 28.5896 30.5898 24.0005 36.2507 24.0005ZM29.5007 35.7505H32.5007V32.7505H29.5007V35.7505ZM34.7507 35.7505H37.7507V32.7505H34.7507V35.7505ZM39.7507 35.7505H42.7507V32.7505H39.7507V35.7505Z" fill="#0064FF"/>
</svg>
