<svg width="48" height="48" viewBox="0 0 48 48" fill="none" xmlns="http://www.w3.org/2000/svg">
<path d="M35 8C38.0373 8.00026 40.5 10.4626 40.5 13.5V21.6963C39.5443 21.3728 38.5395 21.1559 37.5 21.0586V13.5C37.5 12.1195 36.3805 11.0003 35 11H7.5C6.11929 11 5 12.1193 5 13.5V30.5C5.00026 31.8805 6.11945 33 7.5 33H23.0596C23.0211 33.4115 23 33.8284 23 34.25C23 34.8433 23.0397 35.4274 23.1152 36H7.5C4.4626 36 2.00026 33.5373 2 30.5V13.5C2 10.4624 4.46243 8 7.5 8H35ZM17.6689 14.6289L16.2764 17.6475C15.8107 18.6567 15.8636 19.8292 16.4189 20.792L17.0986 21.9707C18.0289 23.5837 18.2136 25.5216 17.6045 27.2812L16.4941 30.4902L13.6592 29.5098L14.7695 26.2998C15.0941 25.3621 14.9957 24.3293 14.5 23.4697L13.8203 22.291C12.7781 20.4843 12.6778 18.2835 13.5518 16.3896L14.9453 13.3711L17.6689 14.6289ZM23.207 14.6289L21.8145 17.6475C21.3488 18.6567 21.4016 19.8292 21.957 20.792L22.6367 21.9707C23.567 23.5837 23.7517 25.5216 23.1426 27.2812L22.0322 30.4902L19.1973 29.5098L20.3076 26.2998C20.6322 25.3621 20.5338 24.3293 20.0381 23.4697L19.3584 22.291C18.3162 20.4843 18.2158 18.2835 19.0898 16.3896L20.4834 13.3711L23.207 14.6289ZM28.7461 14.6289L27.3535 17.6475C26.8879 18.6567 26.9407 19.8292 27.4961 20.792L28.1758 21.9707C28.4237 22.4005 28.6168 22.8539 28.7578 23.3203C27.7035 24.0444 26.7592 24.9171 25.9551 25.9082C26.1354 25.0812 26.0048 24.2113 25.5771 23.4697L24.8975 22.291C23.8552 20.4843 23.7549 18.2835 24.6289 16.3896L26.0225 13.3711L28.7461 14.6289ZM45.5 24.7646C44.6118 23.8984 43.6028 23.1555 42.5 22.5645V16.5H45.5V24.7646Z" fill="black"/>
<path d="M36.2507 23.9995C41.9112 24 46.5007 28.5889 46.5007 34.2495C46.5007 39.9101 41.9112 44.499 36.2507 44.4995C30.5898 44.4995 25.9997 39.9104 25.9997 34.2495C25.9997 28.5886 30.5898 23.9995 36.2507 23.9995ZM34.7507 40.7075H37.7517V37.7075H34.7507V40.7075ZM34.9509 35.5493H37.5505V28.1997H34.9509V35.5493Z" fill="#D3232A"/>
</svg>
