<svg width="48" height="48" viewBox="0 0 48 48" fill="none" xmlns="http://www.w3.org/2000/svg">
<path d="M36 11.5C39.0375 11.5 41.4999 13.9625 41.5 17V31C41.5 34.0376 39.0376 36.5 36 36.5H9C5.96252 36.4999 3.5 34.0375 3.5 31V17C3.50011 13.9626 5.96259 11.5001 9 11.5H36ZM9 14.5C7.61944 14.5001 6.50011 15.6194 6.5 17V31C6.5 32.3806 7.61938 33.4999 9 33.5H36C37.3807 33.5 38.5 32.3807 38.5 31V17C38.4999 15.6194 37.3806 14.5 36 14.5H9ZM14 18C14.5522 18.0001 15 18.4478 15 19V29C14.9999 29.5521 14.5521 29.9999 14 30H11C10.4478 30 10.0001 29.5522 10 29V19C10 18.4477 10.4477 18 11 18H14ZM46.5 29.5H43.5V18.5H46.5V29.5Z" fill="#F62E24"/>
</svg>
