<svg width="48" height="48" viewBox="0 0 48 48" fill="none" xmlns="http://www.w3.org/2000/svg">
<path fill-rule="evenodd" clip-rule="evenodd" d="M36 8C39.0376 8 41.5 10.4624 41.5 13.5V30.5C41.5 33.5376 39.0376 36 36 36H8.5C5.46244 36 3 33.5376 3 30.5V13.5C3 10.4624 5.46243 8 8.5 8H36ZM8.5 11C7.11929 11 6 12.1193 6 13.5V30.5C6 31.8807 7.11929 33 8.5 33H36C37.3807 33 38.5 31.8807 38.5 30.5V13.5C38.5 12.1193 37.3807 11 36 11H8.5Z" fill="black"/>
<path d="M46.5 28.5H43.5V16.5H46.5V28.5Z" fill="black"/>
<path d="M28.2998 25.502H31L27 31.002L23 25.502H25.7002V23.002H28.2998V25.502Z" fill="black"/>
<path d="M18.5 22.792C19.9657 23.3855 21 24.8215 21 26.5C21 28.7091 19.2091 30.5 17 30.5C14.7909 30.5 13 28.7091 13 26.5C13 24.8215 14.0343 23.3855 15.5 22.792V14H18.5V22.792Z" fill="black"/>
<path d="M31 18.502H28.2998V21.002H25.7002V18.502H23L27 13.001L31 18.502Z" fill="black"/>
</svg>
