<svg width="48" height="48" viewBox="0 0 48 48" fill="none" xmlns="http://www.w3.org/2000/svg">
<path d="M35.001 8C38.0383 8.00026 40.501 10.4636 40.501 13.501V21.6973C39.5452 21.3738 38.5405 21.1569 37.501 21.0596V13.501C37.501 12.1204 36.3815 11.0012 35.001 11.001H7.50098C6.12027 11.001 5.00098 12.1203 5.00098 13.501V30.501C5.00124 31.8815 6.12043 33.001 7.50098 33.001H23.0605C23.022 33.4125 23.001 33.8294 23.001 34.251C23.001 34.8442 23.0406 35.4283 23.1162 36.001H7.50098C4.46357 36.001 2.00026 33.5383 2 30.501V13.501C2 10.4634 4.46341 8 7.50098 8H35.001ZM17.501 22.793C18.9664 23.3866 20.001 24.8227 20.001 26.501C20.0007 28.7097 18.2097 30.5007 16.001 30.501C13.792 30.501 12.0012 28.7099 12.001 26.501C12.001 24.8225 13.0353 23.3865 14.501 22.793V14.001H17.501V22.793ZM27.3008 24.4814C26.0372 25.6397 24.9992 27.0397 24.2598 28.6084L22.001 25.502H24.7012V23.002H27.3008V24.4814ZM45.501 24.7656C44.6128 23.8993 43.6038 23.1565 42.501 22.5654V16.501H45.501V24.7656ZM30.001 18.502H27.3008V21.002H24.7012V18.502H22.001L26.001 13.001L30.001 18.502Z" fill="black"/>
<path d="M36.2515 24.0005C41.9123 24.0006 46.5015 28.5896 46.5015 34.2505C46.5014 39.9113 41.9122 44.5004 36.2515 44.5005C30.5906 44.5005 26.0016 39.9113 26.0015 34.2505C26.0015 28.5896 30.5905 24.0005 36.2515 24.0005ZM34.8091 27.6831V35.8188L40.2798 38.1636L41.3042 35.7739L37.4087 34.104V27.6831H34.8091Z" fill="#A6A6A6"/>
</svg>
