<svg width="48" height="48" viewBox="0 0 48 48" fill="none" xmlns="http://www.w3.org/2000/svg">
<path d="M46 11.5C42.9892 11.5 39.9731 12.2946 37.3467 13.7793C40.89 17.0887 43.25 21.8266 43.25 27.6299C43.25 31.112 42.4635 34.1387 41.0156 36.3447C39.5514 38.5755 37.3696 40 34.75 40C32.1302 40 29.9486 38.5751 28.4844 36.3428C27.0366 34.1355 26.25 31.1068 26.25 27.6201C26.25 21.7325 28.683 17.0206 32.2998 13.7471C29.7822 12.2899 26.8976 11.5 24 11.5C21.1019 11.5 18.2161 12.289 15.6982 13.7461C19.3159 17.0197 21.75 21.7317 21.75 27.6201C21.75 31.1068 20.9634 34.1355 19.5156 36.3428C18.0514 38.5751 15.8698 40 13.25 40C10.6302 40 8.4486 38.5751 6.98438 36.3428C5.53655 34.1355 4.75002 31.1068 4.75 27.6201C4.75 21.8225 7.10896 17.0873 10.6514 13.7793C8.02527 12.2951 5.01022 11.5 2 11.5V8.5C5.87352 8.5 9.82064 9.64919 13.1582 11.8008C16.3784 9.66378 20.1952 8.5 24 8.5C27.8043 8.5 31.62 9.66389 34.8398 11.8008C38.1777 9.64862 42.1259 8.5 46 8.5V11.5ZM13.1855 15.5332C9.93647 18.3418 7.75 22.498 7.75 27.6201C7.75002 30.6934 8.44852 33.1046 9.49316 34.6973C10.5214 36.2649 11.8398 37 13.25 37C14.6602 37 15.9786 36.2649 17.0068 34.6973C18.0515 33.1046 18.75 30.6934 18.75 27.6201C18.75 22.4515 16.5066 18.3196 13.1855 15.5332ZM34.8125 15.5342C31.4923 18.3205 29.25 22.4524 29.25 27.6201C29.25 30.6934 29.9485 33.1046 30.9932 34.6973C32.0214 36.2649 33.3398 37 34.75 37C36.1603 37 37.4786 36.2647 38.5068 34.6982C39.5514 33.1067 40.25 30.6978 40.25 27.6299C40.25 22.5018 38.0622 18.3439 34.8125 15.5342Z" fill="#FF8A00"/>
</svg>
