<svg width="48" height="48" viewBox="0 0 48 48" fill="none" xmlns="http://www.w3.org/2000/svg">
<path d="M14.499 29V39.2402C14.4991 39.9029 14.6165 40.4347 14.8408 40.8711C15.0604 41.2981 15.4252 41.7168 16.0518 42.0986C17.3658 42.8993 19.7736 43.5 23.999 43.5C28.2244 43.5 30.6323 42.8993 31.9463 42.0986C32.5729 41.7168 32.9377 41.2981 33.1572 40.8711C33.3815 40.4347 33.499 39.9029 33.499 39.2402V29H36.499V39.2402C36.499 40.257 36.3179 41.2849 35.8252 42.2432C35.3274 43.2112 34.5552 44.0229 33.5078 44.6611C31.474 45.9004 28.3821 46.5 23.999 46.5C19.616 46.5 16.5241 45.9004 14.4902 44.6611C13.4429 44.0229 12.6707 43.2112 12.1729 42.2432C11.6802 41.2849 11.4991 40.257 11.499 39.2402V29H14.499ZM23.998 31.0029C25.5765 31.0029 26.8442 31.1662 27.8066 31.4004C28.6909 31.6156 29.5181 31.9375 30.0195 32.4004C30.2741 32.6354 30.4206 32.9042 30.5029 33.0811C30.5923 33.2731 30.6563 33.4685 30.7031 33.6396C30.7966 33.9813 30.857 34.3536 30.8975 34.6826C30.979 35.345 31.002 36.0108 31.002 36.3008C31.002 36.9771 30.6431 37.4562 30.3252 37.7295C30.0287 37.9843 29.6924 38.135 29.4336 38.2285C28.9058 38.4191 28.265 38.5252 27.6709 38.5928C26.4533 38.7312 25.0021 38.7492 23.999 38.75C22.9938 38.7508 21.5445 38.7327 20.3281 38.5938C19.7347 38.526 19.0947 38.4187 18.5674 38.2275C18.3088 38.1337 17.9727 37.9835 17.6768 37.7285C17.3593 37.4548 17.002 36.9757 17.002 36.3008C17.002 36.0109 17.025 35.3458 17.1064 34.6836C17.147 34.3545 17.2073 33.9815 17.3008 33.6396C17.3476 33.4685 17.4116 33.2731 17.501 33.0811C17.5833 32.9042 17.7298 32.6354 17.9844 32.4004C18.4848 31.9384 19.3083 31.616 20.1924 31.4004C21.1535 31.166 22.4196 31.003 23.998 31.0029ZM23.999 2.5C28.4608 2.5 31.587 3.36455 33.6289 4.90137C35.7401 6.49053 36.499 8.65043 36.499 10.7197V18.3779L45.0625 26.9395L42.9414 29.0605L33.9385 20.0605C33.6572 19.7792 33.499 19.3978 33.499 19V10.7197C33.499 9.42927 33.0615 8.22951 31.8252 7.29883C30.5193 6.31583 28.1456 5.5 23.999 5.5C19.8524 5.5 17.4788 6.31583 16.1729 7.29883C14.9366 8.22951 14.4991 9.42928 14.499 10.7197V19C14.499 19.3977 14.3408 19.7793 14.0596 20.0605L5.0625 29.0605L2.94141 26.9395L11.499 18.3789V10.7197C11.4991 8.65043 12.2579 6.49053 14.3691 4.90137C16.4111 3.36454 19.5372 2.5 23.999 2.5ZM23.998 12C25.9292 12 27.4031 12.1333 28.4785 12.4512C29.5054 12.7548 30.4275 13.3131 30.8486 14.3232L30.9268 14.5312C31.0088 14.7808 31.0317 15.0412 31.042 15.1836C31.0551 15.365 31.0596 15.567 31.0586 15.7715C31.0565 16.1823 31.0307 16.6687 30.9844 17.1494C30.9385 17.6254 30.8686 18.1338 30.7676 18.5781C30.7174 18.7989 30.6522 19.0367 30.5654 19.2598C30.4923 19.4478 30.3453 19.7838 30.0615 20.0674C29.6043 20.524 29.0568 20.6598 28.6406 20.7002C28.2628 20.7368 27.8426 20.7081 27.4766 20.6787C26.6887 20.6153 25.6275 20.5 24.002 20.5C22.3765 20.5 21.3153 20.6153 20.5273 20.6787C20.1611 20.7082 19.7403 20.7369 19.3623 20.7002C18.9461 20.6597 18.3986 20.5236 17.9414 20.0664C17.6579 19.7828 17.5106 19.4477 17.4375 19.2598C17.3508 19.0367 17.2855 18.7989 17.2354 18.5781C17.1344 18.1339 17.0645 17.6254 17.0186 17.1494C16.9722 16.6687 16.9475 16.1824 16.9453 15.7715C16.9442 15.567 16.9488 15.365 16.9619 15.1836C16.9722 15.0412 16.9951 14.7808 17.0771 14.5312C17.4525 13.3904 18.4254 12.7768 19.5215 12.4521C20.5957 12.134 22.0672 12 23.998 12Z" fill="#F62E24"/>
</svg>
