<svg width="48" height="48" viewBox="0 0 48 48" fill="none" xmlns="http://www.w3.org/2000/svg">
<path d="M23.5 43.5H7.5V40.5H23.5V43.5ZM31.75 25.75C35.3384 25.75 38.25 28.6616 38.25 32.25C38.25 35.8384 35.3384 38.75 31.75 38.75C29.8137 38.75 28.0705 37.9028 26.877 36.5537L29.123 34.5664C29.7695 35.2972 30.7063 35.75 31.75 35.75C33.6816 35.75 35.25 34.1816 35.25 32.25C35.25 30.3184 33.6816 28.75 31.75 28.75C31.046 28.75 30.3976 28.953 29.8438 29.3105L28.2168 26.79C29.2429 26.1276 30.454 25.75 31.75 25.75ZM12 33.5C13.1046 33.5 14 34.3954 14 35.5C14 36.6046 13.1046 37.5 12 37.5C10.8954 37.5 10 36.6046 10 35.5C10 34.3954 10.8954 33.5 12 33.5ZM19 33.5C20.1046 33.5 21 34.3954 21 35.5C21 36.6046 20.1046 37.5 19 37.5C17.8954 37.5 17 36.6046 17 35.5C17 34.3954 17.8954 33.5 19 33.5ZM30.2051 30.5137L29.7949 33.4863L23.5 32.6172V29.5879L30.2051 30.5137ZM41 17.5C44.5884 17.5 47.5 20.4116 47.5 24C47.5 27.5884 44.5884 30.5 41 30.5C40.5755 30.5 40.1254 30.4627 39.6797 30.3652L40.3203 27.4346C40.5146 27.4771 40.7446 27.5 41 27.5C42.9316 27.5 44.5 25.9316 44.5 24C44.5 22.0684 42.9316 20.5 41 20.5C40.7446 20.5 40.5146 20.5229 40.3203 20.5654L39.6797 17.6348C40.1254 17.5373 40.5755 17.5 41 17.5ZM7.5 27.3818V30.4111L1.5 29.583V26.5537L7.5 27.3818ZM12 25.8301C13.1046 25.8301 14 26.7255 14 27.8301C13.9999 28.9346 13.1045 29.8301 12 29.8301C10.8955 29.8301 10.0001 28.9346 10 27.8301C10 26.7255 10.8954 25.8301 12 25.8301ZM19 25.8301C20.1046 25.8301 21 26.7255 21 27.8301C20.9999 28.9346 20.1045 29.8301 19 29.8301C17.8955 29.8301 17.0001 28.9346 17 27.8301C17 26.7255 17.8954 25.8301 19 25.8301ZM31.75 9.25C35.3384 9.25 38.25 12.1616 38.25 15.75C38.25 19.3384 35.3384 22.25 31.75 22.25C30.454 22.25 29.2429 21.8724 28.2168 21.21L29.8438 18.6895C30.3976 19.047 31.046 19.25 31.75 19.25C33.6816 19.25 35.25 17.6816 35.25 15.75C35.25 13.8184 33.6816 12.25 31.75 12.25C30.7063 12.25 29.7695 12.7028 29.123 13.4336L26.877 11.4463C28.0705 10.0972 29.8137 9.25 31.75 9.25ZM12 18.1699C13.1045 18.1699 13.9999 19.0654 14 20.1699C14 21.2745 13.1046 22.1699 12 22.1699C10.8954 22.1699 10 21.2745 10 20.1699C10.0001 19.0654 10.8955 18.1699 12 18.1699ZM19 18.1699C20.1045 18.1699 20.9999 19.0654 21 20.1699C21 21.2745 20.1046 22.1699 19 22.1699C17.8954 22.1699 17 21.2745 17 20.1699C17.0001 19.0654 17.8955 18.1699 19 18.1699ZM7.5 20.6172L1.5 21.4453V18.416L7.5 17.5879V20.6172ZM30.2051 17.4863L23.5 18.4111V15.3818L29.7949 14.5137L30.2051 17.4863ZM12 10.5C13.1046 10.5 14 11.3954 14 12.5C14 13.6046 13.1046 14.5 12 14.5C10.8954 14.5 10 13.6046 10 12.5C10 11.3954 10.8954 10.5 12 10.5ZM19 10.5C20.1046 10.5 21 11.3954 21 12.5C21 13.6046 20.1046 14.5 19 14.5C17.8954 14.5 17 13.6046 17 12.5C17 11.3954 17.8954 10.5 19 10.5ZM23.5 7.5H7.5V4.5H23.5V7.5Z" fill="#FF8A00"/>
</svg>
