<svg width="48" height="48" viewBox="0 0 48 48" fill="none" xmlns="http://www.w3.org/2000/svg">
<path d="M39 19C42.5899 19 45.5 21.9101 45.5 25.5V26.5C45.5 30.0899 42.5899 33 39 33H36.6514C35.297 38.7333 30.1471 43 24 43H18C10.8203 43 5 37.1797 5 30V19H39ZM8 30C8 35.5228 12.4772 40 18 40H24C29.5228 40 34 35.5228 34 30V22H8V30ZM37 30H39C40.933 30 42.5 28.433 42.5 26.5V25.5C42.5 23.567 40.933 22 39 22H37V30ZM14.3994 6.2168C13.9165 6.83774 13.9954 7.72667 14.5801 8.25293L15.5312 9.10938C17.2207 10.6301 17.5114 13.1729 16.208 15.0352L15.5322 16H11.8701L13.75 13.3145C14.1843 12.6938 14.0873 11.8458 13.5244 11.3389L12.5732 10.4824C10.8191 8.90363 10.5824 6.2379 12.0312 4.375L12.3232 4H16.123L14.3994 6.2168ZM21.3984 6.2168C20.9156 6.8377 20.9946 7.72669 21.5791 8.25293L22.5303 9.10938C24.2198 10.6301 24.5106 13.1728 23.207 15.0352L22.5312 16H18.8691L20.749 13.3145C21.1834 12.6937 21.0865 11.8458 20.5234 11.3389L19.5723 10.4824C17.8183 8.90364 17.5815 6.23786 19.0303 4.375L19.3223 4H23.1221L21.3984 6.2168ZM28.3984 6.2168C27.9156 6.8377 27.9946 7.72669 28.5791 8.25293L29.5303 9.10938C31.2198 10.6301 31.5106 13.1728 30.207 15.0352L29.5312 16H25.8691L27.749 13.3145C28.1834 12.6937 28.0865 11.8458 27.5234 11.3389L26.5723 10.4824C24.8183 8.90364 24.5815 6.23786 26.0303 4.375L26.3223 4H30.1221L28.3984 6.2168Z" fill="#FF8A00"/>
</svg>
