<svg width="48" height="48" viewBox="0 0 48 48" fill="none" xmlns="http://www.w3.org/2000/svg">
<path d="M8.6377 11.6719C9.8477 11.6719 10.9782 11.952 11.8682 12.502C12.7579 13.0519 13.4576 13.8218 13.9375 14.8115C14.4175 15.8015 14.6675 16.9319 14.6875 18.2119H11.7275C11.6475 17.1719 11.3574 16.3816 10.8574 15.8516C10.3574 15.3218 9.58738 15.0518 8.55762 15.0518C7.52771 15.0518 6.70821 15.3324 6.19824 15.9023C5.68827 16.4623 5.4375 17.2319 5.4375 18.2119C5.43751 18.7119 5.53756 19.142 5.72754 19.502C5.91749 19.8619 6.15759 20.1519 6.4375 20.3818C6.71744 20.6118 7.0275 20.8022 7.35742 20.9521C7.68733 21.1021 7.98764 21.2318 8.26758 21.3418L9.81738 21.9316C10.2874 22.1316 10.8182 22.3721 11.4082 22.6621C11.9981 22.9521 12.5683 23.3424 13.1182 23.8223C13.668 24.3022 14.1184 24.9221 14.4883 25.6719C14.8482 26.4318 15.0273 27.3823 15.0273 28.5322C15.0273 29.9019 14.7779 31.1018 14.2881 32.1416C13.7981 33.1816 13.0674 33.9915 12.1074 34.5615C11.1474 35.1315 9.94751 35.4219 8.51758 35.4219C6.41774 35.4218 4.83777 34.8119 3.75781 33.582C2.68781 32.352 2.09781 30.6918 2.00781 28.5918H5.07812C5.10812 29.3918 5.26809 30.042 5.53809 30.542C5.80808 31.0419 6.19831 31.4121 6.69824 31.6621C7.1981 31.9119 7.79789 32.0322 8.51758 32.0322C9.62735 32.0322 10.4974 31.712 11.1074 31.0723C11.7174 30.4323 12.0273 29.562 12.0273 28.4521C12.0273 27.8222 11.8976 27.3221 11.6377 26.9521C11.3777 26.5821 11.0277 26.2717 10.5977 26.0117C10.1578 25.7518 9.66794 25.522 9.11816 25.332L7.1582 24.5518C5.7382 24.0118 4.59805 23.2515 3.74805 22.2715C2.88814 21.2915 2.4678 19.9819 2.46777 18.332C2.46777 16.902 2.73758 15.6814 3.26758 14.6914C3.79757 13.6915 4.52832 12.9416 5.44824 12.4316C6.36811 11.9218 7.42793 11.6719 8.6377 11.6719ZM39.6182 11.6719C40.8282 11.6719 41.9586 11.952 42.8486 12.502C43.7384 13.0519 44.438 13.8218 44.918 14.8115C45.398 15.8015 45.648 16.9319 45.668 18.2119H42.708C42.628 17.1719 42.3379 16.3816 41.8379 15.8516C41.3379 15.3218 40.5679 15.0518 39.5381 15.0518C38.5082 15.0518 37.6887 15.3324 37.1787 15.9023C36.6687 16.4623 36.418 17.2319 36.418 18.2119C36.418 18.7119 36.518 19.142 36.708 19.502C36.898 19.8619 37.1381 20.1519 37.418 20.3818C37.6979 20.6118 38.008 20.8022 38.3379 20.9521C38.6678 21.1021 38.9681 21.2318 39.248 21.3418L40.7979 21.9316C41.2679 22.1316 41.7987 22.3721 42.3887 22.6621C42.9785 22.9521 43.5488 23.3424 44.0986 23.8223C44.6485 24.3022 45.0988 24.9221 45.4688 25.6719C45.8287 26.4318 46.0078 27.3823 46.0078 28.5322C46.0078 29.9019 45.7584 31.1018 45.2686 32.1416C44.7786 33.1816 44.0479 33.9915 43.0879 34.5615C42.1279 35.1315 40.928 35.4219 39.498 35.4219C37.3982 35.4218 35.8182 34.8119 34.7383 33.582C33.6683 32.352 33.0783 30.6918 32.9883 28.5918H36.0586C36.0886 29.3918 36.2486 30.042 36.5186 30.542C36.7886 31.0419 37.1788 31.4121 37.6787 31.6621C38.1786 31.9119 38.7784 32.0322 39.498 32.0322C40.6078 32.0322 41.4779 31.712 42.0879 31.0723C42.6978 30.4323 43.0078 29.562 43.0078 28.4521C43.0078 27.8222 42.8781 27.3221 42.6182 26.9521C42.3582 26.5821 42.0081 26.2717 41.5781 26.0117C41.1383 25.7518 40.6484 25.522 40.0986 25.332L38.1387 24.5518C36.7187 24.0118 35.5785 23.2515 34.7285 22.2715C33.8686 21.2915 33.4483 19.9819 33.4482 18.332C33.4482 16.902 33.718 15.6814 34.248 14.6914C34.778 13.6915 35.5088 12.9416 36.4287 12.4316C37.3486 11.9218 38.4084 11.6719 39.6182 11.6719ZM24.1172 11.6719C26.5971 11.6719 28.4872 12.682 29.8271 14.7119C31.1671 16.7418 31.8378 19.6617 31.8379 23.4814C31.8379 27.3214 31.1671 30.2522 29.8271 32.2822C28.4872 34.312 26.587 35.3223 24.1172 35.3223C21.6474 35.3222 19.7274 34.312 18.3975 32.2822C17.0675 30.2522 16.3975 27.3214 16.3975 23.4814C16.3975 19.6417 17.0675 16.7418 18.3975 14.7119C19.7274 12.682 21.6373 11.6719 24.1172 11.6719ZM24.1475 15.0918C22.5675 15.0918 21.3877 15.7721 20.5977 17.1221C19.8177 18.482 19.4278 20.6017 19.4277 23.4814C19.4277 26.3614 19.8177 28.5221 20.5977 29.8721C21.3777 31.2319 22.5576 31.9023 24.1475 31.9023C25.7373 31.9023 26.907 31.2218 27.667 29.8721C28.437 28.5121 28.8174 26.3814 28.8174 23.4814C28.8173 20.6017 28.437 18.472 27.667 17.1221C26.897 15.7621 25.7274 15.0918 24.1475 15.0918Z" fill="#F62E24"/>
</svg>
