<svg width="48" height="48" viewBox="0 0 48 48" fill="none" xmlns="http://www.w3.org/2000/svg">
<path d="M10.2598 24.9199C12.9097 24.9199 14.9401 25.7901 16.3701 27.54C17.8 29.29 18.5195 31.8 18.5195 35.0898C18.5195 38.3898 17.8001 40.9202 16.3701 42.6602C14.9401 44.4101 12.8997 45.2803 10.2598 45.2803C7.61988 45.2802 5.55961 44.4101 4.13965 42.6602C2.7197 40.9102 2 38.3898 2 35.0898C2.00003 31.7901 2.70981 29.29 4.13965 27.54C5.5596 25.7901 7.60992 24.92 10.2598 24.9199ZM20.9102 25.2002H32.5605V28.1104H24.1406V33.6504H31.7002V36.5596H24.1406V44.9902H20.9004V25.1904L20.9102 25.2002ZM34.3496 25.2002H46V28.1104H37.5801V33.6504H45.1396V36.5596H37.5801V44.9902H34.3398V25.1904L34.3496 25.2002ZM10.29 27.8701C8.60008 27.8701 7.33 28.4502 6.5 29.6201C5.66008 30.7901 5.24026 32.61 5.24023 35.0898C5.24023 37.5698 5.66006 39.4298 6.5 40.5898C7.34 41.7598 8.60004 42.3398 10.29 42.3398C11.9799 42.3398 13.2396 41.7597 14.0596 40.5898C14.8795 39.4198 15.29 37.5898 15.29 35.0898C15.29 32.6099 14.8795 30.7801 14.0596 29.6201C13.2396 28.4502 11.9799 27.8701 10.29 27.8701ZM23.001 15.8428C23.9665 16.1942 23.93 17.5728 22.9473 17.873L15.0742 20.2783L21.4531 23.0117H15.8701L11.7285 21.2725C10.8052 20.8847 10.8723 19.5544 11.8301 19.2617L19.9346 16.7852L16.29 14.5068H19.3271L23.001 15.8428ZM35.1504 15.8428C36.1159 16.1942 36.0794 17.5728 35.0967 17.873L27.2236 20.2783L33.6025 23.0117H28.0195L23.8779 21.2725C22.9546 20.8847 23.0217 19.5544 23.9795 19.2617L32.084 16.7852L28.4395 14.5068H31.4766L35.1504 15.8428ZM26.6885 4.5C27.5573 4.50009 28.3558 4.97993 28.7637 5.74707L29.668 7.44727H32V8.94727H30.4658L30.4727 8.96094H30.4707L30.8184 9.61523L30.9053 9.78027V13.5H28.6025V11.9473H19.3984V13.5H17.0957V9.78027L17.5312 8.96094L17.5371 8.94727H16V7.44727H18.334L19.2363 5.74805C19.644 4.9804 20.4423 4.50015 21.3115 4.5H26.6885Z" fill="#FF8A00"/>
</svg>
