<svg width="48" height="48" viewBox="0 0 48 48" fill="none" xmlns="http://www.w3.org/2000/svg">
<path d="M14.3789 24.9199C17.2489 24.9199 19.4393 25.7901 20.9893 27.54C22.5392 29.29 23.3095 31.8 23.3096 35.0898C23.3096 38.3898 22.5292 40.9202 20.9893 42.6602C19.4393 44.4101 17.2388 45.2803 14.3789 45.2803C11.5191 45.2802 9.29873 44.4101 7.75879 42.6602C6.21888 40.9102 5.44922 38.3897 5.44922 35.0898C5.44925 31.7901 6.21898 29.29 7.75879 27.54C9.29873 25.7901 11.5091 24.92 14.3789 24.9199ZM38.2295 39.4795H38.3096V25.2002H41.6992V45H38.4297L29.4092 30.7197H29.3301V45H25.8896V25.2002H29.1895L38.2295 39.4795ZM14.4092 27.8701C12.5893 27.8701 11.2096 28.4502 10.3096 29.6201C9.39959 30.7901 8.94924 32.6099 8.94922 35.0898C8.94922 37.5698 9.39961 39.4298 10.3096 40.5898C11.2196 41.7598 12.5793 42.3398 14.4092 42.3398C16.2392 42.3398 17.5995 41.7598 18.4795 40.5898C19.3694 39.4198 19.8096 37.5897 19.8096 35.0898C19.8095 32.6101 19.3693 30.7801 18.4795 29.6201C17.5895 28.4502 16.2291 27.8701 14.4092 27.8701ZM23 15.8428C23.9655 16.1942 23.929 17.5728 22.9463 17.873L15.0732 20.2783L21.4521 23.0117H15.8691L11.7275 21.2725C10.8042 20.8847 10.8713 19.5544 11.8291 19.2617L19.9336 16.7852L16.2891 14.5068H19.3262L23 15.8428ZM35.1494 15.8428C36.1149 16.1942 36.0784 17.5728 35.0957 17.873L27.2227 20.2783L33.6016 23.0117H28.0186L23.877 21.2725C22.9536 20.8847 23.0208 19.5544 23.9785 19.2617L32.083 16.7852L28.4385 14.5068H31.4756L35.1494 15.8428ZM26.6875 4.5C27.5563 4.50009 28.3548 4.97993 28.7627 5.74707L29.667 7.44727H31.999V8.94727H30.4648L30.4717 8.96094H30.4697L30.8174 9.61523L30.9043 9.78027V13.5H28.6016V11.9473H19.3975V13.5H17.0947V9.78027L17.5303 8.96094L17.5361 8.94727H15.999V7.44727H18.333L19.2354 5.74805C19.6431 4.9804 20.4414 4.50015 21.3105 4.5H26.6875Z" fill="#FF8A00"/>
</svg>
