<svg width="48" height="48" viewBox="0 0 48 48" fill="none" xmlns="http://www.w3.org/2000/svg">
<path d="M21.0568 28.9561C22.8613 29.6122 22.7944 32.1868 20.9582 32.748L8.67889 36.5L19.1789 41H9.98846L3.77654 38.3906C2.05149 37.6661 2.17679 35.1808 3.966 34.6338L16.6789 30.75L10.6789 27H15.6789L21.0568 28.9561ZM35.6789 27L41.0568 28.9561C42.8614 29.6122 42.7944 32.1868 40.9582 32.748L28.6789 36.5L39.1789 41H29.9885L23.7765 38.3906C22.0515 37.6661 22.1768 35.1808 23.966 34.6338L36.6789 30.75L30.6789 27H35.6789ZM28.7668 5.5C30.4307 5.5001 31.9593 6.41852 32.7404 7.8877L34.6613 11.5H38.9992V14.5H36.2531L36.9992 15.9072V24.5H32.4992V21.25H15.4992V24.5H10.9992V15.9072L11.7453 14.5H8.9992V11.5H13.3381L15.259 7.8877C16.0401 6.41864 17.5678 5.50017 19.2316 5.5H28.7668ZM19.2316 8.5C18.6772 8.50017 18.1677 8.80635 17.9074 9.2959L16.7355 11.5H31.2629L30.091 9.2959C29.8306 8.80625 29.3213 8.5001 28.7668 8.5H19.2316Z" fill="#FF8A00"/>
</svg>
