<svg width="48" height="48" viewBox="0 0 48 48" fill="none" xmlns="http://www.w3.org/2000/svg">
<path d="M21 11H18.25V14H25L31.0039 21.0029L41.001 10.9961L42.0605 12.0596L47.9805 17.9795L45.8594 20.1006L44.084 18.3252L33.9971 38.5H8V26.0811L0.5 23.5811V11.5H11V14H15.25V11H12.5V8H21V11ZM30.8359 25.417L23.6201 17H11V35.5H32.1426L41.8447 16.0938L40.999 15.2441L30.8359 25.417ZM47.3076 26.8838C47.3137 26.8911 47.3192 26.8989 47.3252 26.9062L47.4004 27H47.3955C47.7731 27.5017 48 28.1239 48 28.7998C47.9999 30.4555 46.6557 31.7997 45 31.7998C43.3442 31.7998 42.0001 30.4556 42 28.7998C42 28.1238 42.2268 27.5018 42.6045 27H42.6006L42.6602 26.9238C42.6732 26.9076 42.6858 26.891 42.6992 26.875L45 24L47.3076 26.8838ZM3.5 21.4189L8 22.9189V14.5H3.5V21.4189Z" fill="#F62E24"/>
</svg>
