<svg width="48" height="48" viewBox="0 0 48 48" fill="none" xmlns="http://www.w3.org/2000/svg">
<path d="M43.0039 38.9902C41.9094 38.9902 40.6107 39.3816 39.4111 39.8965C37.3308 40.7893 34.8069 41.127 32.4863 40.1602L31.7344 39.8467C30.6268 39.3852 29.381 39.3852 28.2734 39.8467L26.8887 40.4229C25.0426 41.192 22.9652 41.192 21.1191 40.4229L19.7344 39.8467C18.6268 39.3852 17.381 39.3852 16.2734 39.8467L15.5215 40.1602C13.2009 41.127 10.677 40.7893 8.59668 39.8965C7.39707 39.3816 6.09842 38.9902 5.00391 38.9902V35.9902C6.70383 35.9902 8.44683 36.5678 9.7793 37.1396C11.3598 37.8179 13.0105 37.9558 14.3672 37.3906L15.1191 37.0771C16.9653 36.3079 19.0425 36.3079 20.8887 37.0771L22.2734 37.6543C23.3809 38.1156 24.6269 38.1156 25.7344 37.6543L27.1191 37.0771C28.9653 36.3079 31.0425 36.3079 32.8887 37.0771L33.6406 37.3906C34.9973 37.9558 36.648 37.8179 38.2285 37.1396C39.561 36.5678 41.304 35.9902 43.0039 35.9902V38.9902ZM25.5039 8.5H31.0039V11.5H25.5039V14H31.0039V17H25.5039V19.5H31.0039V22.5H25.5039V24.2285C27.5325 24.8656 29.0039 26.7611 29.0039 29C29.0039 31.7614 26.7653 34 24.0039 34C21.2425 34 19.0039 31.7614 19.0039 29C19.0039 26.7611 20.4753 24.8656 22.5039 24.2285V5H25.5039V8.5ZM3.00391 27.5C4.44358 27.5 5.90498 27.9133 7.1084 28.376C8.96492 29.0897 11.05 29.0958 12.8203 28.3379C13.7701 27.9313 14.9717 27.5046 16.0117 27.5098L15.9961 30.5098C15.6283 30.508 14.9264 30.6995 14.001 31.0957C11.4553 32.1855 8.55694 32.1478 6.03125 31.1768C4.98327 30.7738 3.91684 30.5 3.00391 30.5V27.5ZM45.0039 30.5C44.091 30.5 43.0245 30.7738 41.9766 31.1768C39.4509 32.1478 36.5526 32.1855 34.0068 31.0957C33.0814 30.6995 32.3795 30.508 32.0117 30.5098L31.9961 27.5098C33.0362 27.5046 34.2377 27.9313 35.1875 28.3379C36.9579 29.0958 39.0429 29.0897 40.8994 28.376C42.1028 27.9133 43.5642 27.5 45.0039 27.5V30.5Z" fill="#F62E24"/>
</svg>
