<svg width="48" height="48" viewBox="0 0 48 48" fill="none" xmlns="http://www.w3.org/2000/svg">
<path d="M39.7803 11.9883C41.23 11.9883 42.3896 12.2685 43.2695 12.8184C44.1495 13.3683 44.7894 14.1282 45.1895 15.0781C45.5894 16.038 45.7998 17.108 45.7998 18.2979C45.7998 19.3378 45.6195 20.1879 45.2695 20.8379C44.9195 21.4879 44.4695 21.9879 43.9395 22.3379C43.4095 22.6879 42.8794 22.888 42.3594 22.958V23.0879C42.7794 23.1079 43.23 23.238 43.71 23.458C44.19 23.688 44.6396 24.0188 45.0596 24.4688C45.4795 24.9087 45.8296 25.4788 46.0996 26.1787C46.3695 26.8687 46.5 27.6986 46.5 28.6484C46.5 29.8383 46.3001 30.9183 45.9102 31.8682C45.5102 32.8282 44.8396 33.5784 43.8896 34.1484C42.9397 34.7084 41.6397 34.998 40.0098 34.998H33.0596V11.9883H39.7803ZM13.8799 15.3682H5.66016V21.748H13.2998V25.1279H5.66016V31.6084H14V34.9883H2.5V11.9883H13.8799V15.3682ZM23.71 11.9883C25.2799 11.9883 26.5403 12.3281 27.4902 12.998C28.4402 13.668 29.1296 14.5786 29.5596 15.7285C29.9895 16.8784 30.2099 18.1382 30.21 19.498C30.21 20.858 29.9995 22.1481 29.5596 23.2881C29.1296 24.4279 28.4401 25.3481 27.4902 26.0381C26.5403 26.7281 25.2799 27.0781 23.71 27.0781H20.5V34.9883H17.3398V11.9883H23.71ZM36.2295 31.6279H40L39.9795 31.6182C40.9395 31.6182 41.6699 31.498 42.1699 31.248C42.6698 30.9981 42.9999 30.6381 43.1699 30.1582C43.3399 29.6783 43.4199 29.0983 43.4199 28.3984C43.4199 27.6984 43.2993 27.1084 43.0693 26.6084C42.8294 26.1085 42.4799 25.7185 42 25.4385C41.5201 25.1585 40.89 25.0186 40.1201 25.0186H36.2295V31.6279ZM20.5 23.6787H23.6094C24.5493 23.6787 25.2698 23.5184 25.7598 23.1885C26.2498 22.8585 26.5895 22.3878 26.7695 21.7578C26.9595 21.1279 27.0498 20.3777 27.0498 19.5078C27.0498 18.6381 26.9602 17.8782 26.7803 17.2783C26.6003 16.6783 26.2695 16.2184 25.7695 15.8984C25.2695 15.5685 24.5493 15.4082 23.6094 15.4082H20.5V23.6787ZM36.2197 21.5986H39.71L39.7002 21.5879C40.69 21.5878 41.4403 21.3285 41.9502 20.8086C42.4602 20.2886 42.71 19.4781 42.71 18.3682C42.71 17.7582 42.64 17.2381 42.5 16.7881C42.36 16.3481 42.0696 15.998 41.6396 15.748C41.2097 15.4981 40.5796 15.3779 39.7598 15.3779H36.2197V21.5986Z" fill="#FF8A00"/>
</svg>
