<svg width="48" height="48" viewBox="0 0 48 48" fill="none" xmlns="http://www.w3.org/2000/svg">
<path d="M20 13.5H17.543L11.96 18.1523L11.7881 18.2959L3 21.9961V33H8.53613L8.96875 33.749C9.57679 34.7996 10.7077 35.5 12 35.5C13.2923 35.5 14.4232 34.7996 15.0312 33.749L15.4639 33H32.5361L32.9688 33.749C33.5768 34.7996 34.7077 35.5 36 35.5C37.2923 35.5 38.4232 34.7996 39.0312 33.749L39.4639 33H43.4736L45 31.7783V21.2939L33.5381 13.5H30V10.5H34.4619L48 19.7061V33.2207L44.5264 36H41.1191C39.9316 37.5182 38.0827 38.5 36 38.5C33.9173 38.5 32.0684 37.5182 30.8809 36H17.1191C15.9317 37.5182 14.0827 38.5 12 38.5C9.91729 38.5 8.06835 37.5182 6.88086 36H0V20.0039L10.2129 15.7031L16.457 10.5H20V13.5ZM27 28.5H23V24.5H27V28.5ZM26.5 22H23.5L23 8H27L26.5 22Z" fill="#F62E24"/>
</svg>
