<svg width="48" height="48" viewBox="0 0 48 48" fill="none" xmlns="http://www.w3.org/2000/svg">
<path d="M12.4111 5.50781L10.3008 11.3701C10.0815 11.9792 9.90766 12.599 9.77832 13.2246L17.6865 11.5332L18 11.4658V14.5332L9.50195 16.3516C9.56375 18.6085 10.1862 20.8417 11.3506 22.8379C11.3593 22.8527 11.3674 22.8679 11.376 22.8828L17.6865 21.5332L18 21.4658V24.5332L12.6641 25.6748C13.4281 27.8378 13.7334 30.133 13.5674 32.4141L17.6865 31.5332L18 31.4658V34.5332L13.0215 35.5986C12.9423 35.8875 12.856 36.1752 12.7607 36.4609L10.4229 43.4746L7.57715 42.5254L9.64453 36.3213L2 37.957V34.8896L10.4834 33.0742C10.7993 30.7915 10.5309 28.4629 9.7002 26.3096L2 27.957V24.8896L8.31543 23.5381C7.26531 21.4831 6.66492 19.2515 6.52734 16.9883L2 17.957V14.8896L6.62695 13.8994C6.77831 12.7005 7.06169 11.5114 7.47852 10.3535L9.58887 4.49219L12.4111 5.50781ZM29.5 7C38.8888 7 46.5 14.6112 46.5 24C46.5 33.3888 38.8888 41 29.5 41H23.5C22.1193 41 21 39.8807 21 38.5V9.5C21 8.11929 22.1193 7 23.5 7H29.5ZM24 38H29.5C37.232 38 43.5 31.732 43.5 24C43.5 16.268 37.232 10 29.5 10H24V38Z" fill="#00BA13"/>
</svg>
