<svg width="48" height="48" viewBox="0 0 48 48" fill="none" xmlns="http://www.w3.org/2000/svg">
<path d="M42.25 4.75C42.8023 4.75 43.25 5.19772 43.25 5.75V42.25C43.25 42.8023 42.8023 43.25 42.25 43.25H5.75C5.19772 43.25 4.75 42.8023 4.75 42.25V5.75C4.75 5.19772 5.19772 4.75 5.75 4.75H42.25ZM7.75 40.25H40.25V7.75H7.75V40.25ZM13.8809 22.3418H23.625V13.4971H26.873V34H23.625V25.0684H13.8809V34H10.6328V13.4971H13.8809V22.3418ZM33.9297 20.6934C34.7946 20.6934 35.5588 20.8605 36.2158 21.2012C36.8824 21.5407 37.4025 22.0217 37.7705 22.6416C38.1532 23.2538 38.3418 23.9705 38.3418 24.7822C38.3417 25.3234 38.2407 25.836 38.0381 26.3174L38.0371 26.3193C37.8354 26.7858 37.517 27.2763 37.0889 27.79C36.6636 28.3003 36.1006 28.9053 35.4023 29.6035L33.4756 31.5303H38.4854V34H29.3213L29.3008 32.0986L29.3584 32.04L33.625 27.6836C34.0438 27.2528 34.3964 26.8824 34.6826 26.5723C34.9603 26.2594 35.1634 25.9636 35.2969 25.6855L35.2998 25.6797C35.4399 25.4102 35.5117 25.112 35.5117 24.7822C35.5117 24.1487 35.3552 23.7514 35.0957 23.5303L35.0928 23.5273C34.8299 23.295 34.4339 23.1641 33.875 23.1641C33.2653 23.1641 32.8681 23.3088 32.6338 23.5527C32.405 23.8037 32.2498 24.2397 32.2031 24.9033L32.1895 25.0898H29.4092V24.8896C29.4092 24.0666 29.5967 23.3341 29.9775 22.6992C30.3574 22.0662 30.8901 21.5729 31.5693 21.2207C32.2506 20.8675 33.0395 20.6934 33.9297 20.6934ZM36.9355 27.6621L37.1953 27.3359C37.202 27.3271 37.2073 27.3174 37.2139 27.3086C37.1272 27.4245 37.035 27.5428 36.9355 27.6621ZM33.0518 23.0762C33.0371 23.0809 33.023 23.0867 33.0088 23.0918C33.0327 23.0833 33.0571 23.075 33.082 23.0674L33.0518 23.0762Z" fill="#FF8A00"/>
</svg>
