<svg width="48" height="48" viewBox="0 0 48 48" fill="none" xmlns="http://www.w3.org/2000/svg">
<path d="M17 38.7471L2 41.957V38.8896L17 35.6797V38.7471ZM29.5 7C38.8888 7 46.5 14.6112 46.5 24C46.5 33.3888 38.8888 41 29.5 41H23.5C22.1193 41 21 39.8807 21 38.5V9.5C21 8.11929 22.1193 7 23.5 7H29.5ZM24 38H29.5C37.232 38 43.5 31.732 43.5 24C43.5 16.268 37.232 10 29.5 10H24V38ZM17 31.8271L2 35.0371V31.9697L17 28.7598V31.8271ZM17 24.7969L2 28.0068V24.9395L17 21.7295V24.7969ZM17 17.7773L2 20.9873V17.9199L17 14.71V17.7773ZM17 10.7471L2 13.957V10.8896L17 7.67969V10.7471Z" fill="#00BA13"/>
</svg>
