<svg width="49" height="48" viewBox="0 0 49 48" fill="none" xmlns="http://www.w3.org/2000/svg">
<path d="M29.9219 7C39.3107 7 46.9219 14.6112 46.9219 24C46.9219 33.3888 39.3107 41 29.9219 41H22.9219C21.5412 41 20.4219 39.8807 20.4219 38.5V9.5C20.4219 8.11929 21.5412 7 22.9219 7H29.9219ZM17.4219 40.5H2.42188V37.5H17.4219V40.5ZM23.4219 38H29.9219C37.6539 38 43.9219 31.732 43.9219 24C43.9219 16.268 37.6539 10 29.9219 10H23.4219V38ZM17.4219 33H2.42188V30H17.4219V33ZM17.4219 25.5H2.42188V22.5H17.4219V25.5ZM17.4219 18H2.42188V15H17.4219V18ZM17.4219 10.5H2.42188V7.5H17.4219V10.5Z" fill="#0064FF"/>
</svg>
