<svg width="48" height="48" viewBox="0 0 48 48" fill="none" xmlns="http://www.w3.org/2000/svg">
<path d="M48.0098 19.7061V33.2207L44.5361 36H41.1084C39.9275 37.5087 38.101 38.5 36.0098 38.5C33.9187 38.4999 32.0929 37.5085 30.9121 36H17.0977C15.9168 37.5085 14.0911 38.5 12 38.5C9.90893 38.5 8.08321 37.5085 6.90234 36H0V20.0039L10.2129 15.7031L16.457 10.5H34.4609L48.0098 19.7061ZM11.96 18.1523L11.7881 18.2959L3 21.9961V33H8.55078L8.98535 33.7441C9.60479 34.8047 10.7187 35.5 12 35.5C13.2813 35.5 14.3952 34.8047 15.0146 33.7441L15.4492 33H32.5615L32.9951 33.7441C33.6145 34.8047 34.7286 35.4999 36.0098 35.5C37.291 35.5 38.405 34.8047 39.0244 33.7441L39.459 33H43.4844L45.0098 31.7793V21.293L33.5391 13.5H17.543L11.96 18.1523ZM31.75 19C34.5114 19 36.75 21.2386 36.75 24C36.75 26.7614 34.5114 29 31.75 29C29.5111 29 27.6156 27.5286 26.9785 25.5H24V27.5H21V25.5H18.5V27.5H15.5V25.5H13.5V22.5H26.9785C27.6156 20.4714 29.5111 19 31.75 19ZM31.75 22C30.6454 22 29.75 22.8954 29.75 24C29.75 25.1046 30.6454 26 31.75 26C32.8546 26 33.75 25.1046 33.75 24C33.75 22.8954 32.8546 22 31.75 22Z" fill="#FF8A00"/>
</svg>
