<svg width="48" height="48" viewBox="0 0 48 48" fill="none" xmlns="http://www.w3.org/2000/svg">
<path d="M25.5 46.2705H22.5V41.3203H25.5V46.2705ZM12.8105 37.3105L9.31055 40.8105L7.18945 38.6895L10.6895 35.1895L12.8105 37.3105ZM40.8105 38.6895L38.6895 40.8105L35.1895 37.3105L37.3105 35.1895L40.8105 38.6895ZM30.7627 11.1709C35.364 13.6013 38.5 18.434 38.5 24C38.5 32.0084 32.0084 38.5 24 38.5C15.9916 38.5 9.5 32.0084 9.5 24C9.5 18.4343 12.6354 13.6015 17.2363 11.1709L19 5H29L30.7627 11.1709ZM24 12.5C17.6484 12.5 12.5 17.6484 12.5 24C12.5 30.3516 17.6484 35.5 24 35.5C30.3516 35.5 35.5 30.3516 35.5 24C35.5 17.6484 30.3516 12.5 24 12.5ZM25.6006 32H22.4004V28.7998H25.6006V32ZM25.21 27H22.79L22.4004 16H25.6006L25.21 27ZM6.68066 25.5H1.73047V22.5H6.68066V25.5ZM46.2705 25.5H41.3203V22.5H46.2705V25.5ZM12.8105 10.6895L10.6895 12.8105L7.18945 9.31055L9.31055 7.18945L12.8105 10.6895ZM40.8105 9.31055L37.3105 12.8105L35.1895 10.6895L38.6895 7.18945L40.8105 9.31055Z" fill="#FF8A00"/>
</svg>
