<svg width="48" height="48" viewBox="0 0 48 48" fill="none" xmlns="http://www.w3.org/2000/svg">
<path d="M13.54 8.75L12.9395 9.2002C8.42725 12.5821 5.5 17.947 5.5 24C5.5 29.87 7.97284 34.6135 11.915 38H36.083C40.0099 34.6018 42.5 29.5897 42.5 24C42.5 18.2348 39.5627 12.5745 35.0605 9.2002L34.46 8.75V4H37.46V7.26953C42.3554 11.2344 45.5 17.5265 45.5 24C45.5 30.7216 42.4007 36.7201 37.5791 40.6611L37.5 40.7256V44H34.5V41H31.5V44H28.5V41H25.5V44H22.5V41H19.5V44H16.5V41H13.5V44H10.5V40.7256L10.4219 40.6621C5.59803 36.7279 2.5 31.0323 2.5 24C2.5 17.2268 5.65325 11.2044 10.54 7.26758V4H13.54V8.75ZM26 32.25H22V28.25H26V32.25ZM25.5 25.75H22.5L22 11.75H26L25.5 25.75Z" fill="#FF8A00"/>
</svg>
