<svg width="48" height="48" viewBox="0 0 48 48" fill="none" xmlns="http://www.w3.org/2000/svg">
<path d="M23.126 2.5918C23.506 1.90165 24.4979 1.90168 24.8779 2.5918L26.2637 5.11328C25.5964 6.42529 25.1451 7.86581 24.957 9.3877L24.002 7.64941L5.91992 40.5439H42.084L32.3057 22.7549C33.6333 23.3831 35.0841 23.7931 36.6123 23.9385L46.6875 42.2666C47.0533 42.9328 46.5715 43.7476 45.8115 43.748H2.19238C1.43226 43.7477 0.950413 42.9329 1.31641 42.2666L23.126 2.5918ZM25.752 37.248H22.252V33.748H25.752V37.248ZM25.3555 31.748H22.6484L22.1973 18.998H25.8066L25.3555 31.748Z" fill="#FF8A00"/>
<rect x="28" y="1" width="20" height="20" rx="10" fill="#F62E24"/>
<path d="M37.5044 8.766C37.5044 9.802 36.9024 10.81 36.0064 12.224L33.9204 15.5H32.1984L34.6904 11.776C34.4384 11.846 34.1584 11.888 33.8784 11.888C31.9744 11.888 30.6724 10.586 30.6724 8.696C30.6724 6.736 31.9464 5.462 34.1024 5.462C36.2724 5.462 37.5184 6.75 37.5044 8.766ZM35.9784 8.696C35.9784 7.506 35.4044 6.778 34.1024 6.778C32.8004 6.778 32.2264 7.506 32.2264 8.696C32.2264 9.872 32.8004 10.586 34.1024 10.586C35.2644 10.586 35.9784 9.872 35.9784 8.696ZM45.322 8.766C45.322 9.802 44.72 10.81 43.824 12.224L41.738 15.5H40.016L42.508 11.776C42.256 11.846 41.976 11.888 41.696 11.888C39.792 11.888 38.49 10.586 38.49 8.696C38.49 6.736 39.764 5.462 41.92 5.462C44.09 5.462 45.336 6.75 45.322 8.766ZM43.796 8.696C43.796 7.506 43.222 6.778 41.92 6.778C40.618 6.778 40.044 7.506 40.044 8.696C40.044 9.872 40.618 10.586 41.92 10.586C43.082 10.586 43.796 9.872 43.796 8.696Z" fill="white"/>
</svg>
