<svg width="48" height="48" viewBox="0 0 48 48" fill="none" xmlns="http://www.w3.org/2000/svg">
<path d="M20.25 5.75C30.3284 5.75 38.5 13.9216 38.5 24C38.5 34.0784 30.3284 42.25 20.25 42.25C10.1716 42.25 2 34.0784 2 24C2 13.9216 10.1716 5.75 20.25 5.75ZM6.58594 30.7764C9.08141 35.798 14.2626 39.25 20.25 39.25C26.2372 39.25 31.4175 35.7978 33.9131 30.7764L20.25 28L6.58594 30.7764ZM47 34H43V30H47V34ZM46.5 27.5H43.5L43 13.5H47L46.5 27.5ZM20.25 8.75C11.8284 8.75 5 15.5784 5 24C5 25.1772 5.13321 26.3232 5.38574 27.4238L20.25 21.25L35.1133 27.4238C35.3658 26.3232 35.5 25.1772 35.5 24C35.5 15.5784 28.6716 8.75 20.25 8.75Z" fill="#FF8A00"/>
</svg>
