<svg width="48" height="48" viewBox="0 0 48 48" fill="none" xmlns="http://www.w3.org/2000/svg">
<g clip-path="url(#clip0_7194_46052)">
<path d="M24 6C33.9284 6 42 14.0716 42 24C42 33.9284 33.9284 42 24 42C19.1578 42 14.6132 40.0982 11.2021 36.6436C7.85705 33.2547 6 28.7569 6 24C6 19.245 7.84574 14.7456 11.2041 11.3545C14.6154 7.90043 19.169 6 24 6ZM41.0674 7.14648C45.3521 11.4847 47.9999 17.4385 48 24C48 30.5607 45.3524 36.5259 41.0654 40.8555L38.9346 38.7451C42.6875 34.9548 45 29.7391 45 24C44.9999 18.2619 42.6875 13.0556 38.9326 9.25391L41.0674 7.14648ZM9.06543 9.25586C5.31271 13.0462 3.00005 18.2611 3 24C3.00005 29.7381 5.3124 34.9444 9.06738 38.7461L6.93262 40.8545C2.64768 36.5163 4.92554e-05 30.5617 0 24C5.25881e-05 17.4393 2.6477 11.4741 6.93457 7.14453L9.06543 9.25586ZM24 9C19.9717 9 16.1855 10.5789 13.3369 13.4639L13.3359 13.4658C10.5344 16.2947 9 20.035 9 24C9 27.9629 10.5432 31.705 13.3379 34.5361C16.1868 37.4214 19.9622 39 24 39C32.2716 39 39 32.2716 39 24C39 15.7284 32.2716 9 24 9ZM25.0137 12.4873C27.01 12.4873 28.5938 12.8129 29.7656 13.4639C30.959 14.0931 31.8161 14.9609 32.3369 16.0674C32.8577 17.1523 33.1181 18.4002 33.1182 19.8105C33.1182 21.1993 32.8577 22.4585 32.3369 23.5869C31.8161 24.6934 30.9705 25.5727 29.7988 26.2236C28.627 26.8746 27.0423 27.2002 25.0459 27.2002H20.3262V35.5H17.1035V12.4873H25.0137ZM20.3262 24.4326H24.916C26.3047 24.4326 27.3571 24.2487 28.0732 23.8799C28.7892 23.5111 29.2776 22.9794 29.5381 22.2852C29.7985 21.5908 29.9287 20.7653 29.9287 19.8105C29.9287 18.8342 29.7985 18.0095 29.5381 17.3369C29.2994 16.6643 28.811 16.1548 28.0732 15.8076C27.3572 15.4387 26.2941 15.2539 24.8838 15.2539H20.3262V24.4326Z" fill="#F62E24"/>
</g>
<defs>
<clipPath id="clip0_7194_46052">
<rect width="48" height="48" fill="white"/>
</clipPath>
</defs>
</svg>
