<svg width="48" height="48" viewBox="0 0 48 48" fill="none" xmlns="http://www.w3.org/2000/svg">
<path d="M4.82227 11.9883C5.732 11.9884 6.46205 12.2681 7.00195 12.8379C7.5519 13.3978 7.95214 14.1681 8.20215 15.1279C8.45215 16.0979 8.58203 17.1884 8.58203 18.3984C8.58202 19.4384 8.47194 20.2885 8.25195 20.9385C8.03196 21.5884 7.75162 22.0785 7.43164 22.3984C7.11171 22.7283 6.78184 22.9183 6.46191 22.9883V23.0879C6.71189 23.1079 6.98151 23.2287 7.27148 23.4287C7.56148 23.6387 7.8423 23.9587 8.1123 24.3887C8.37218 24.8186 8.59178 25.3786 8.76172 26.0684C8.93171 26.7484 9.02148 27.5786 9.02148 28.5586C9.02146 29.7485 8.90232 30.8387 8.65234 31.8086C8.40234 32.7885 7.98156 33.5587 7.3916 34.1387C6.80163 34.7184 5.99149 34.998 4.97168 34.998H0.671875V11.9883H4.82227ZM14.1416 11.9883C15.1415 11.9883 15.9415 12.3186 16.5215 12.9785C17.1114 13.6385 17.531 14.5285 17.791 15.6484C18.051 16.7684 18.1816 18.0183 18.1816 19.4082C18.1816 20.3382 18.1212 21.2384 17.9912 22.1084C17.8712 22.9783 17.6513 23.7485 17.3613 24.4385C17.123 24.9785 16.8136 25.4348 16.4365 25.8008L18.8418 34.998H16.4316L14.3193 26.6631C14.2673 26.6649 14.2144 26.668 14.1611 26.668H12.3311V34.998H10.1914V11.9883H14.1416ZM29.4512 34.998H27.2715L26.3379 29.3682H22.1035L21.1514 34.998H19.0615L23.1211 11.9883H25.4111L29.4512 34.998ZM32.5215 22.1035L36.5117 11.9883H39.0615L34.9707 21.9316L39.2422 34.998H36.7314L33.5645 25.3525L32.5215 27.8887V34.998H30.3818V11.9883H32.5215V22.1035ZM47.252 15.7285H42.2822V21.5479H46.8926V25.2881H42.2822V31.2383H47.332V34.9785H40.1523V11.9883H47.252V15.7285ZM2.81152 31.2686H4.95215L4.94141 31.2578C5.51141 31.2578 5.93168 31.148 6.22168 30.918C6.50164 30.688 6.69222 30.3484 6.78223 29.8984C6.87223 29.4384 6.92188 28.8883 6.92188 28.2383C6.92188 27.5883 6.85168 27.0679 6.72168 26.6279C6.59167 26.1881 6.38148 25.8378 6.10156 25.5879C5.82162 25.3381 5.46129 25.2188 5.02148 25.2188H2.81152V31.2686ZM31.6621 29.9785L31.6719 29.9883V29.9541L31.6621 29.9785ZM22.7363 25.6279H25.7178L24.2715 16.9082H24.2119L22.7363 25.6279ZM12.3311 22.9385H14.0918L14.1016 22.9287C14.6515 22.9287 15.0618 22.8086 15.3418 22.5586C15.6218 22.3086 15.8114 21.9282 15.9014 21.4082C16.0013 20.8883 16.0517 20.2285 16.0518 19.4287C16.0518 18.6287 16.0014 17.9179 15.9014 17.3779C15.8013 16.8381 15.611 16.4281 15.3311 16.1582C15.0511 15.8883 14.6309 15.748 14.0811 15.748H12.3311V22.9385ZM2.80176 21.4287H4.77148C5.35148 21.4287 5.78227 21.1985 6.07227 20.7285C6.36226 20.2585 6.50195 19.518 6.50195 18.498C6.50194 17.9381 6.46182 17.448 6.38184 17.0381C6.30182 16.6282 6.13156 16.3081 5.8916 16.0781C5.6516 15.8483 5.29138 15.7383 4.81152 15.7383H2.80176V21.4287Z" fill="#F62E24"/>
</svg>
