<svg width="48" height="48" viewBox="0 0 48 48" fill="none" xmlns="http://www.w3.org/2000/svg">
<path d="M24 2.5C35.8741 2.5 45.5 12.1259 45.5 24C45.5 35.8741 35.8741 45.5 24 45.5C12.1259 45.5 2.5 35.8741 2.5 24C2.5 12.1259 12.1259 2.5 24 2.5ZM24 5.5C13.7827 5.5 5.5 13.7827 5.5 24C5.5 34.2173 13.7827 42.5 24 42.5C34.2173 42.5 42.5 34.2173 42.5 24C42.5 13.7827 34.2173 5.5 24 5.5ZM11.625 17.3555C12.6469 16.8868 13.8484 17.3557 14.333 18.3701C15.294 20.3819 16.3119 22.0912 17.5029 23.4678C19.2368 20.6385 22.2867 18.7502 26 18.75C30.1605 18.7501 33.7971 21.3764 35.3047 25H38.999C38.3044 26.0422 37.0828 26.9029 35.6318 27.583L36.999 31H31.999V28.834C30.1965 29.2773 28.3924 29.5 26.9893 29.5C24.5384 29.4999 22.1858 29.0988 19.999 28.3643V31H14.999L16.6367 26.9043C13.7993 25.3706 11.3724 23.2271 9.55664 20.6572C8.88491 19.7064 9.31321 18.4164 10.3711 17.9307L11.625 17.3555Z" fill="#FF8A00"/>
</svg>
