<svg width="48" height="48" viewBox="0 0 48 48" fill="none" xmlns="http://www.w3.org/2000/svg">
<path d="M2.38702 34.9601C10.2297 37.0616 17.0608 42.4155 19.5397 44.8598L17.4308 47C15.174 44.7745 8.78064 39.7838 1.6094 37.8622L2.38702 34.9601ZM36.6063 12.5822L30.8607 22.2022L32.415 23.1343L32.2056 24.1751L31.6041 27.1477L39.2443 27.4372L45.1376 17.5629L47.7189 19.1024L42.1817 28.3791C42.4845 28.7472 42.6852 29.2107 42.7197 29.7427C42.8104 31.145 42.8453 34.3219 41.4011 36.8234L36.5231 45.2726C36.0451 46.1006 35.014 46.3439 34.2275 45.9103L25.79 41.2593L25.1307 39.5241L22.2951 39.8782L21.8569 39.9339L21.4578 39.7422L21.4549 39.7402C21.4528 39.7392 21.4499 39.7372 21.4461 39.7353C21.4384 39.7316 21.4263 39.7267 21.4119 39.7197C21.3829 39.7057 21.3404 39.6848 21.2857 39.6581C21.1752 39.6041 21.013 39.5249 20.8064 39.4223C20.3926 39.2169 19.797 38.9166 19.0663 38.5391C17.6055 37.7843 15.5987 36.7149 13.4165 35.455C9.54344 33.2188 2.68654 28.0459 1.07044 26.817C0.237069 26.1834 0.0377746 25.0194 0.597021 24.1448L3.07661 20.2684L3.15192 20.1598C3.55087 19.6336 4.22995 19.3913 4.87834 19.5553L16.124 22.4037C19.2332 23.1908 22.5269 22.2716 24.7796 19.9886L24.8813 19.8947C25.4022 19.4499 26.1543 19.3811 26.7505 19.7382L28.2833 20.6567L34.0269 11.0406L36.6063 12.5822ZM3.62926 24.9801C6.0188 26.7813 11.6576 30.9691 14.919 32.8522C17.0508 34.083 19.0153 35.1304 20.4464 35.8697C21.1611 36.2389 21.7415 36.5314 22.1425 36.7305C22.2248 36.7713 22.3008 36.8072 22.3675 36.84L25.7734 36.4155C26.5037 36.3244 27.2039 36.7127 27.5184 37.3663L27.5761 37.5003L28.207 39.1602L34.56 42.6619L38.7983 35.321C39.6468 33.8513 39.7821 31.8311 39.7442 30.4626L27.9585 30.0165L29.0492 24.6201L26.1011 22.8517C23.1519 25.3355 19.1668 26.2731 15.3855 25.3156L5.08375 22.7059L3.62926 24.9801ZM21.0891 2.49753L14.2881 14.334L21.9371 12.2858L22.7147 15.1879L10.1182 18.5625L6.74268 5.967L9.6458 5.18938L11.6911 12.8247L18.4833 1L21.0891 2.49753Z" fill="black"/>
</svg>
