<svg width="48" height="48" viewBox="0 0 48 48" fill="none" xmlns="http://www.w3.org/2000/svg">
<path d="M24 6C33.9284 6 42 14.0716 42 24C42 33.9284 33.9284 42 24 42C19.1578 42 14.6132 40.0982 11.2021 36.6436C7.85705 33.2547 6 28.7569 6 24C6 19.245 7.84574 14.7456 11.2041 11.3545C14.6154 7.90043 19.169 6 24 6ZM41.0674 7.14648C45.3521 11.4847 47.9999 17.4385 48 24C47.9999 30.5607 45.3523 36.5259 41.0654 40.8555L38.9346 38.7451C42.6875 34.9548 44.9999 29.7391 45 24C44.9999 18.262 42.6875 13.0556 38.9326 9.25391L41.0674 7.14648ZM9.06543 9.25586C5.31273 13.0462 3.00005 18.2611 3 24C3.00007 29.7381 5.31241 34.9444 9.06738 38.7461L6.93262 40.8545C2.64769 36.5163 6.56736e-05 30.5617 0 24C5.2588e-05 17.4393 2.64772 11.4741 6.93457 7.14453L9.06543 9.25586ZM24 9C19.9717 9 16.1855 10.5789 13.3369 13.4639L13.3359 13.4658C10.5344 16.2947 9 20.035 9 24C9 27.9629 10.5432 31.705 13.3379 34.5361C16.1868 37.4214 19.9622 39 24 39C32.2716 39 39 32.2716 39 24C39 15.7284 32.2716 9 24 9ZM25.8994 12.6963L24.5293 21.499H32.5029L22.5498 35.499L22.1035 35.3027L23.4727 26.501H15.4971L25.4502 12.5L25.8994 12.6963Z" fill="#FF8A00"/>
</svg>
