<svg width="48" height="48" viewBox="0 0 48 48" fill="none" xmlns="http://www.w3.org/2000/svg">
<path d="M35.4785 10.3535C35.2238 11.0612 35.0196 11.7807 34.8643 12.5068L30 11.4658V14.5332L34.5059 15.4971C34.4339 17.9723 34.9141 20.4476 35.9326 22.7354L30 21.4658V24.5332L37.6455 26.1689C38.5443 28.424 38.8231 30.8783 38.4551 33.2744L30.3135 31.5332L30 31.4658V34.5332L37.6924 36.1797L35.5771 42.5254L38.4229 43.4746L40.6445 36.8105L46 37.957V34.8896L41.3926 33.9033C41.7774 31.5636 41.6568 29.174 41.0449 26.8965L46 27.957V24.8896L39.7422 23.5508C39.6175 23.3108 39.4876 23.0727 39.3506 22.8379C38.1494 20.7787 37.5252 18.4672 37.498 16.1377L46 17.957V14.8896L37.7979 13.1338C37.9251 12.5391 38.0921 11.9497 38.3008 11.3701L40.4111 5.50781L37.5889 4.49219L35.4785 10.3535ZM18.5 7C9.11116 7 1.5 14.6112 1.5 24C1.5 33.3888 9.11116 41 18.5 41H24.5C25.8807 41 27 39.8807 27 38.5V9.5C27 8.11929 25.8807 7 24.5 7H18.5ZM24 38H18.5C10.768 38 4.5 31.732 4.5 24C4.5 16.268 10.768 10 18.5 10H24V38Z" fill="#FF8A00"/>
</svg>
