<svg width="48" height="48" viewBox="0 0 48 48" fill="none" xmlns="http://www.w3.org/2000/svg">
<path d="M9.43164 38.6738C9.52929 40.4422 11.1251 42.002 13.2852 42.002C15.5148 42.0018 17.1426 40.3398 17.1426 38.502H20.1426L20.1475 38.6738C20.2451 40.4422 21.84 42.002 24 42.002C26.2298 42.002 27.8574 40.3399 27.8574 38.502H30.8574C30.8574 40.3398 32.4852 42.0018 34.7148 42.002C36.9446 42.002 38.5723 40.3399 38.5723 38.502H41.5723C41.5723 40.3399 43.2009 42.002 45.4307 42.002H46V45.002H45.4307C43.3012 45.002 41.3458 44.0623 40.0723 42.5596C38.7988 44.0621 36.8441 45.002 34.7148 45.002C32.5858 45.0019 30.6309 44.0628 29.3574 42.5605C28.0839 44.0628 26.1291 45.002 24 45.002C21.8707 45.002 19.9151 44.0631 18.6416 42.5605C17.3681 44.0625 15.414 45.0019 13.2852 45.002C11.1557 45.002 9.20025 44.0624 7.92676 42.5596C6.65325 44.062 4.69859 45.002 2.56934 45.002H2V42.002H2.56934C4.7991 42.002 6.42773 40.3399 6.42773 38.502H9.42773L9.43164 38.6738ZM31.6895 24.3516C34.9527 24.3516 37.5898 26.9888 37.5898 30.252C37.5898 33.5152 34.9527 36.1523 31.6895 36.1523C29.924 36.1523 28.3362 35.3789 27.2598 34.1582L29.3594 32.3057C29.9229 32.9447 30.7552 33.3515 31.6895 33.3516C33.4063 33.3516 34.79 31.9688 34.79 30.252C34.79 28.5352 33.4063 27.1523 31.6895 27.1523C31.0724 27.1524 30.4933 27.3367 30.0068 27.6494L28.4922 25.2939C29.4056 24.7068 30.5067 24.3516 31.6895 24.3516ZM30.2051 28.5156L29.7949 31.4883L2 27.6543V24.625L30.2051 28.5156ZM39.5 18.1016C42.763 18.1018 45.3994 20.7389 45.3994 24.002C45.3994 27.265 42.763 29.9021 39.5 29.9023C39.0993 29.9023 38.7038 29.8633 38.3164 29.7832L38.8828 27.041C39.0752 27.0808 39.2808 27.1016 39.5 27.1016C41.2166 27.1014 42.5996 25.7186 42.5996 24.002C42.5996 22.2853 41.2166 20.9026 39.5 20.9023C39.2808 20.9023 39.0752 20.9231 38.8828 20.9629L38.3164 18.2207C38.7038 18.1406 39.0993 18.1016 39.5 18.1016ZM31.6895 11.8516C34.9527 11.8516 37.5898 14.4888 37.5898 17.752C37.5898 21.0152 34.9527 23.6523 31.6895 23.6523C30.5067 23.6523 29.4056 23.2972 28.4922 22.71L30.0068 20.3545C30.4933 20.6672 31.0724 20.8515 31.6895 20.8516C33.4063 20.8516 34.79 19.4688 34.79 17.752C34.79 16.0352 33.4063 14.6523 31.6895 14.6523C30.7552 14.6524 29.9229 15.0592 29.3594 15.6982L27.2598 13.8457C28.3362 12.625 29.924 11.8516 31.6895 11.8516ZM8.16211 19.499C8.39233 20.5556 8.85877 21.5238 9.50684 22.3428L2 23.3779V20.3486L8.16211 19.499ZM18.0557 15.4209C18.6444 16.1173 18.9999 17.0181 19 18.002C18.9998 20.2118 17.2099 22.002 15 22.002C12.7901 22.002 11.0002 20.2118 11 18.002C11.0001 17.0183 11.3549 16.1173 11.9434 15.4209L15 11.6016L18.0557 15.4209ZM30.2051 19.4883L21.4629 20.6934C21.8083 19.8647 21.9999 18.9558 22 18.002L21.9932 17.6807C21.9918 17.651 21.9881 17.6214 21.9863 17.5918L29.7949 16.5156L30.2051 19.4883ZM24.916 6.4209C25.5047 7.11735 25.8603 8.01812 25.8604 9.00195C25.8601 11.2118 24.0702 13.002 21.8604 13.002C19.6505 13.002 17.8606 11.2118 17.8604 9.00195C17.8604 8.01835 18.2153 7.11728 18.8037 6.4209L21.8604 2.60156L24.916 6.4209Z" fill="#FF8A00"/>
</svg>
