<svg width="48" height="48" viewBox="0 0 48 48" fill="none" xmlns="http://www.w3.org/2000/svg">
<path d="M23.998 31.5C27.2931 31.5 30.4179 32.1966 33.2393 33.4473L32.2373 44H28.2188L28.9795 36H19.0176L19.7773 44H15.7598L14.7559 33.4473C17.5774 32.1964 20.7027 31.5 23.998 31.5ZM14.7559 33.4473C12.6434 34.3838 10.7012 35.6311 8.98535 37.1299L7.99805 36L6.9375 34.9395L14.2051 27.6709L14.7559 33.4473ZM33.5371 30.3193C36.285 31.4118 38.7989 32.9602 40.9854 34.8701L39.0107 37.1299C37.2947 35.6309 35.352 34.3838 33.2393 33.4473L33.5371 30.3193ZM30.3965 15.7217C32.9094 16.9641 34.5533 19.6656 34.2676 22.6641L33.5371 30.3193C30.5889 29.1472 27.3713 28.5 23.998 28.5C21.3948 28.5 18.8842 28.8853 16.5186 29.5996L30.3965 15.7217ZM38.0586 8.06055L30.3965 15.7217C29.4652 15.2612 28.4151 15 27.2988 15H26.877L14.2051 27.6709L13.7285 22.6641C13.3369 18.5544 16.569 15.0001 20.6973 15H26.877L35.9375 5.93945L38.0586 8.06055ZM23.998 4C26.4833 4.00004 28.498 6.01475 28.498 8.5C28.498 10.9853 26.4833 13 23.998 13C21.5128 13 19.498 10.9853 19.498 8.5C19.498 6.01472 21.5128 4 23.998 4Z" fill="#F62E24"/>
</svg>
