<svg width="48" height="48" viewBox="0 0 48 48" fill="none" xmlns="http://www.w3.org/2000/svg">
<path d="M9 36.9248L2.95215 40.5566L1.40723 37.9844L9 33.4258V36.9248ZM46.5918 37.9844L45.0479 40.5566L39 36.9258V33.4258L46.5918 37.9844ZM13.5 11.5C16.036 11.5 18.359 12.5915 20.0039 14.7881C21.6176 16.9431 22.5 20.0476 22.5 24C22.5 27.9524 21.6176 31.0569 20.0039 33.2119C18.359 35.4085 16.036 36.5 13.5 36.5C13.1022 36.5 12.7208 36.3419 12.4395 36.0605C12.1581 35.7792 12 35.3978 12 35V13C12 12.1716 12.6716 11.5 13.5 11.5ZM34.5 11.5C34.8978 11.5 35.2792 11.6581 35.5605 11.9395C35.8419 12.2208 36 12.6022 36 13V35C36 35.8284 35.3284 36.5 34.5 36.5C31.964 36.5 29.641 35.4085 27.9961 33.2119C26.3824 31.0569 25.5 27.9524 25.5 24C25.5 20.0476 26.3824 16.9431 27.9961 14.7881C29.641 12.5915 31.964 11.5 34.5 11.5ZM15 33.2881C15.994 32.9916 16.8799 32.3781 17.6025 31.4131C18.7033 29.943 19.5 27.5475 19.5 24C19.5 20.4525 18.7033 18.057 17.6025 16.5869C16.88 15.622 15.9939 15.0094 15 14.7129V33.2881ZM33 14.7119C32.006 15.0084 31.1201 15.6219 30.3975 16.5869C29.2967 18.057 28.5 20.4525 28.5 24C28.5 27.5475 29.2967 29.943 30.3975 31.4131C31.12 32.378 32.0061 32.9906 33 33.2871V14.7119ZM9 25.502H0V22.502H9V25.502ZM48 25.5H39V22.5H48V25.5ZM9 11.0801V14.5859L1.47363 10.0352L3.02637 7.46875L9 11.0801ZM46.5264 10.0312L39 14.584V11.0781L44.9736 7.46484L46.5264 10.0312Z" fill="#00BA13"/>
</svg>
