<svg width="48" height="48" viewBox="0 0 48 48" fill="none" xmlns="http://www.w3.org/2000/svg">
<path d="M36.6993 37.2695L36.835 38.0068C33.454 41.1069 28.9478 42.9999 23.9991 43C19.0496 43 14.5425 41.1067 11.1612 38.0059L11.2979 37.2695L12.6388 35.2656C15.5379 38.1888 19.5569 40 23.9991 40C28.4409 39.9999 32.4587 38.1884 35.3575 35.2656L36.6993 37.2695ZM46.4083 19C46.7171 19.0001 46.9521 19.2774 46.9014 19.582L45.9991 24.9893L47.7676 30.5879C47.9128 31.0472 47.8285 31.549 47.5411 31.9355L45.879 34.1699L47.4483 38.6299L40.2188 42L39.1593 36.2695L36.9093 32.9102C36.4293 32.1801 35.9992 30.7393 36.1192 30.1094L36.0079 25.3691C36.0029 25.15 36.1408 24.9523 36.3487 24.8828L38.4298 24.1895C38.7257 24.0909 39.039 24.285 39.0831 24.5938L39.4884 27.4492L42.6192 25.6494L43.9161 19.3984C43.9644 19.1667 44.1686 19.0001 44.4053 19H46.4083ZM3.59189 19C3.8285 19 4.03263 19.166 4.08115 19.3975L5.379 25.6396L8.50888 27.4395L8.91416 24.583C8.95838 24.2744 9.27159 24.0811 9.56748 24.1797L11.6485 24.873C11.8566 24.9425 11.9953 25.1401 11.9903 25.3594L11.879 30.0996C12.009 30.7294 11.5788 32.1692 11.089 32.8994L8.83896 36.2598L7.77841 41.9893L0.548926 38.6201L2.11924 34.1602L0.457129 31.9248C0.169771 31.5383 0.0845297 31.0374 0.22959 30.5781L1.99912 24.9795L1.0958 19.582C1.04517 19.2775 1.28024 19.0002 1.58896 19H3.59189ZM33.3956 24.9141L33.3995 25.0615L33.5147 29.9951C33.5044 30.1146 33.5005 30.2311 33.5001 30.3428L23.9991 28.5L14.4962 30.3438C14.4956 30.2318 14.4929 30.115 14.4825 29.9951L14.5987 25.0615L14.6017 24.9141L23.9991 21L33.3956 24.9141ZM23.9991 5C32.162 5.00018 39.1217 10.1486 41.8106 17.375L41.0958 20.5605L39.7198 21.0186C38.3228 13.6071 31.8165 8.0002 23.9991 8C16.1815 8 9.6744 13.6069 8.27744 21.0186L6.90146 20.5605L6.18662 17.375C8.87556 10.1484 15.8359 5 23.9991 5Z" fill="#F62E24"/>
</svg>
